<?xml version="1.0" encoding="utf-8"?>
<!-- Generator: Adobe Illustrator 27.2.0, SVG Export Plug-In . SVG Version: 6.00 Build 0)  -->
<svg version="1.1" id="Layer_1" xmlns="http://www.w3.org/2000/svg" xmlns:xlink="http://www.w3.org/1999/xlink" x="0px" y="0px"
	 viewBox="0 0 200 200" style="enable-background:new 0 0 200 200;" xml:space="preserve">
<style type="text/css">
	.st0{fill:#FFFFFF;stroke:#FFFFFF;stroke-width:2.4938;stroke-linecap:round;stroke-miterlimit:10;}
	.st1{fill:#FFFFFF;}
	.st2{fill:#FFFFFF;stroke:#FFFFFF;stroke-width:3.2011;stroke-miterlimit:10;}
	.st3{fill:none;stroke:#FFFFFF;stroke-width:4.0014;stroke-linecap:round;stroke-miterlimit:10;}
</style>
<g>
	<circle class="st0" cx="100.3" cy="23.9" r="16"/>
	<g>
		<path class="st1" d="M165.8,192.1c-14.4,0-26.5-10.1-29.5-23.7H63.8c-3,13.5-15.1,23.7-29.5,23.7c-17.4,0-31.4-14.7-30.2-32.4
			c1-15,13.3-27.1,28.3-28c13.4-0.8,25,7.1,29.8,18.5c0.1,0.3,0.2,0.5,0.2,0.8c0,1.1-0.8,2-2,2c-1.1,0-2.1-0.7-2.6-1.7
			c-4-9-13-15.2-23.4-15.2c-14.8,0-26.6,12.5-25.6,27.4c0.8,12.7,11.1,23,23.8,23.9c13,0.9,24.1-7.9,26.8-19.9l0,0
			c0-2,1.6-3.6,3.6-3.6h74.4c2,0,3.6,1.6,3.6,3.6l0,0c2.6,11.4,12.8,19.9,25,19.9c15.1,0,27.2-13.1,25.5-28.6
			c-1.3-11.9-10.9-21.4-22.8-22.6c-11.5-1.2-21.7,5.3-26.1,14.9c-0.5,1.1-1.6,1.9-2.9,1.9c-1.3,0-2.3-1.4-1.8-2.6
			c4.7-11.6,16.4-19.6,29.9-18.8c15,0.9,27.3,13,28.3,28C197.1,177.4,183.2,192.1,165.8,192.1z"/>
	</g>
	<path class="st2" d="M58.2,112.2l9.4,9.4c3.9,3.9,9.9,4.6,14.6,1.7l13-8c3.9-2.4,8.8-2.3,12.6,0.1l9.9,6.3c4.7,3,10.9,2.3,14.8-1.6
		l9.5-9.5c4.5-4.5,4.7-11.6,0.5-16.3l-34.7-38.9c-4.9-5.5-13.5-5.2-18.1,0.5L57.4,96.4C53.6,101.1,53.9,107.9,58.2,112.2z"/>
	<circle class="st3" cx="34.3" cy="162.6" r="14.6"/>
	<circle class="st3" cx="166" cy="161.6" r="14.6"/>
</g>
</svg>
