<svg width="22" height="19" viewBox="0 0 22 19" fill="none" xmlns="http://www.w3.org/2000/svg">
<path d="M20.7656 10.5156L12.9844 18.7656C12.8438 18.9531 12.6094 19 12.4219 19C12.2344 19 12.0469 18.9531 11.9062 18.8125C11.5781 18.5312 11.5781 18.0625 11.8594 17.7812L18.4219 10.75H0.75C0.328125 10.75 0 10.4219 0 10.0469C0 9.67188 0.328125 9.25 0.75 9.25H18.4219L11.8594 2.26562C11.5781 1.98438 11.5781 1.51562 11.9062 1.23438C12.2344 0.953125 12.7031 0.953125 12.9844 1.28125L20.7656 9.53125C21.0469 9.8125 21.0469 10.2344 20.7656 10.5156Z" fill="#191919"/>
</svg>
