<svg width="18" height="10" viewBox="0 0 18 10" fill="none" xmlns="http://www.w3.org/2000/svg">
<path d="M11.0938 0H13.5C14.875 0 16 1.125 16 2.5V7.5C16 8.90625 14.875 10 13.5 10H7.625L8.75 9H13.5C14.3125 9 15 8.34375 15 7.5V2.5C15 1.6875 14.3125 1 13.5 1H11.5C11.5 0.65625 11.375 0.3125 11.0938 0.03125V0ZM8.84375 0L7.71875 1H2.5C1.65625 1 1 1.6875 1 2.5V7.5C1 8.34375 1.65625 9 2.5 9H4.96875C4.96875 9.375 5.09375 9.71875 5.375 10H2.5C1.09375 10 0 8.90625 0 7.5V2.5C0 1.125 1.09375 0 2.5 0H8.84375ZM17.5 3C17.75 3 18 3.25 18 3.5V6.5C18 6.78125 17.75 7 17.5 7C17.2188 7 17 6.78125 17 6.5V3.5C17 3.25 17.2188 3 17.5 3ZM6.8125 4.5H11C11.1875 4.5 11.375 4.65625 11.4375 4.84375C11.5312 5.03125 11.4688 5.25 11.3125 5.375L6.8125 9.375C6.625 9.5625 6.28125 9.5625 6.125 9.34375C5.9375 9.125 5.9375 8.8125 6.15625 8.625L9.65625 5.5H5.5C5.28125 5.5 5.09375 5.375 5.03125 5.1875C4.9375 5 5 4.78125 5.15625 4.625L9.65625 0.625C9.84375 0.46875 10.1875 0.46875 10.3438 0.6875C10.5312 0.875 10.5312 1.21875 10.3125 1.375L6.8125 4.5Z" fill="black"/>
</svg>
