<svg width="46" height="46" viewBox="0 0 46 46" fill="none" xmlns="http://www.w3.org/2000/svg">
<circle cx="23" cy="23" r="23" fill="white"/>
<path d="M22.9961 14.8086C23.0664 14.7383 23.1719 14.7031 23.3125 14.7031C23.418 14.7031 23.5234 14.7383 23.5937 14.8086L30.9414 22.1914C31.0117 22.2617 31.082 22.3672 31.082 22.4727C31.082 22.6133 31.0117 22.6836 30.9414 22.7539L23.5937 30.1367C23.5234 30.207 23.418 30.2422 23.3125 30.2422C23.1719 30.2422 23.0664 30.207 22.9961 30.1367L22.293 29.4336C22.2227 29.3633 22.1875 29.293 22.1875 29.1523C22.1875 29.0469 22.2227 28.9414 22.293 28.8359L27.7422 23.3867L15.7539 23.3867C15.6133 23.3867 15.5078 23.3516 15.4375 23.2813C15.3672 23.2109 15.332 23.1055 15.332 22.9648L15.332 21.9805C15.332 21.875 15.3672 21.7695 15.4375 21.6992C15.5078 21.6289 15.6133 21.5586 15.7539 21.5586L27.7422 21.5586L22.293 16.1094C22.2227 16.0391 22.1875 15.9336 22.1875 15.793C22.1875 15.6875 22.2227 15.582 22.293 15.5117L22.9961 14.8086Z" fill="#191919"/>
</svg>
