<svg width="46" height="46" viewBox="0 0 46 46" fill="none" xmlns="http://www.w3.org/2000/svg">
<circle cx="23" cy="23" r="23" fill="white"/>
<path d="M23.418 30.1367C23.3125 30.207 23.207 30.2422 23.1016 30.2422C22.9609 30.2422 22.8906 30.207 22.8203 30.1367L15.4727 22.7539C15.3672 22.6836 15.332 22.6133 15.332 22.4727C15.332 22.3672 15.3672 22.2617 15.4727 22.1914L22.8203 14.8086C22.8906 14.7383 22.9609 14.7031 23.1016 14.7031C23.207 14.7031 23.3125 14.7383 23.418 14.8086L24.1211 15.5117C24.1914 15.582 24.2266 15.6875 24.2266 15.793C24.2266 15.9336 24.1914 16.0391 24.1211 16.1094L18.6719 21.5586L30.6602 21.5586C30.7656 21.5586 30.8711 21.6289 30.9414 21.6992C31.0117 21.7695 31.082 21.875 31.082 21.9805L31.082 22.9648C31.082 23.1055 31.0117 23.2109 30.9414 23.2813C30.8711 23.3516 30.7656 23.3867 30.6602 23.3867L18.6719 23.3867L24.1211 28.8359C24.1914 28.9414 24.2266 29.0469 24.2266 29.1523C24.2266 29.293 24.1914 29.3633 24.1211 29.4336L23.418 30.1367Z" fill="#191919"/>
</svg>
