<svg width="20" height="20" viewBox="0 0 20 20" fill="none" xmlns="http://www.w3.org/2000/svg">
<path d="M3 4V7.5C3 8.34375 2.3125 9 1.5 9C0.65625 9 0 8.34375 0 7.5V7C0 6.75 0.21875 6.5 0.5 6.5C0.75 6.5 1 6.75 1 7V7.5C1 7.78125 1.21875 8 1.5 8C1.75 8 2 7.78125 2 7.5V3C2 2.65625 2.1875 2.3125 2.5 2.15625C2.625 2.0625 2.8125 2 3 2H4.53125C4.8125 2 5.09375 2.125 5.28125 2.34375L12 9.875V6.5C12 5.6875 12.6562 5 13.5 5H15.25C15.875 5 16.4375 5.3125 16.8438 5.78125L19.6562 9.4375C19.875 9.6875 20 10.0312 20 10.3438V13.5C20 14.3438 19.3125 15 18.5 15H18C18 16.6562 16.6562 18 15 18C13.3125 18 12 16.6562 12 15H8C8 16.6562 6.65625 18 5 18C3.3125 18 2 16.6562 2 15H1.5C0.65625 15 0 14.3438 0 13.5V11.5C0 10.6875 0.65625 10 1.5 10H6L3 4ZM7.8125 14H12.1562C12.5625 12.8438 13.6875 12 15 12C16.2812 12 17.4062 12.8438 17.8125 14H18.5C18.75 14 19 13.7812 19 13.5V11H1.5C1.21875 11 1 11.25 1 11.5V13.5C1 13.7812 1.21875 14 1.5 14H2.15625C2.5625 12.8438 3.6875 12 5 12C6.28125 12 7.40625 12.8438 7.8125 14ZM13 15C13 16.125 13.875 17 15 17C16.0938 17 17 16.125 17 15C17 13.9062 16.0938 13 15 13C13.875 13 13 13.9062 13 15ZM15.25 6H13.5C13.2188 6 13 6.25 13 6.5V10H18.8438L16.0312 6.40625C15.8438 6.15625 15.5625 6 15.25 6ZM3.59375 3L7.09375 10H10.75L4.53125 3H3.59375ZM5 13C3.875 13 3 13.9062 3 15C3 16.125 3.875 17 5 17C6.09375 17 7 16.125 7 15C7 13.9062 6.09375 13 5 13Z" fill="black"/>
</svg>
