<?xml version="1.0" encoding="utf-8"?>
<!-- Generator: Adobe Illustrator 27.2.0, SVG Export Plug-In . SVG Version: 6.00 Build 0)  -->
<svg version="1.1" id="Layer_1" xmlns="http://www.w3.org/2000/svg" xmlns:xlink="http://www.w3.org/1999/xlink" x="0px" y="0px"
	 viewBox="0 0 500 500" style="enable-background:new 0 0 500 500;" xml:space="preserve">
<style type="text/css">
	.st0{stroke:#7B7B7B;stroke-width:2.4938;stroke-linecap:round;stroke-miterlimit:10;}
	.st1{stroke:#7B7B7B;stroke-width:3.2011;stroke-miterlimit:10;}
	.st2{fill:none;stroke:#7B7B7B;stroke-width:4.0014;stroke-linecap:round;stroke-miterlimit:10;}
	.st3{fill:#7B7B7B;}
</style>
<g>
	<g>
		<circle class="st0" cx="252.42" cy="61.27" r="29.16"/>
		<g>
			<path d="M372.08,368.51c-26.38,0-48.44-18.5-53.93-43.22H185.74c-5.49,24.72-27.55,43.22-53.93,43.22
				c-31.79,0-57.33-26.88-55.11-59.15c1.87-27.45,24.26-49.6,51.72-51.24c24.42-1.46,45.66,12.96,54.39,33.88
				c0.21,0.5,0.3,1,0.3,1.48c0,1.98-1.55,3.74-3.71,3.74c-2.05,0-3.92-1.21-4.76-3.08c-7.31-16.38-23.76-27.78-42.84-27.78
				c-26.95,0-48.6,22.76-46.8,50.08c1.53,23.19,20.32,42.04,43.5,43.63c23.74,1.62,44.02-14.44,49.03-36.3l0,0
				c0-3.58,2.9-6.49,6.49-6.49h135.84c3.58,0,6.49,2.9,6.49,6.49l0,0c4.78,20.85,23.44,36.41,45.73,36.41
				c27.66,0,49.76-23.97,46.6-52.27c-2.41-21.69-19.98-39.08-41.69-41.29c-21.01-2.14-39.6,9.61-47.62,27.2
				c-0.93,2.07-2.98,3.42-5.24,3.42c-2.46,0-4.19-2.48-3.26-4.74c8.59-21.19,29.99-35.84,54.59-34.36
				c27.46,1.64,49.85,23.79,51.72,51.24C429.42,341.64,403.88,368.51,372.08,368.51z"/>
		</g>
		<path class="st1" d="M175.62,222.65l17.26,17.26c7.1,7.1,18.13,8.4,26.69,3.15l23.73-14.56c7.09-4.35,16.05-4.26,23.05,0.23
			l18.08,11.59c8.58,5.5,19.84,4.29,27.05-2.92l17.4-17.4c8.13-8.13,8.51-21.2,0.85-29.79l-63.44-71.08
			c-8.93-10.01-24.72-9.59-33.11,0.87l-59.14,73.74C167.11,202.37,167.79,214.83,175.62,222.65z"/>
		<circle class="st2" cx="131.99" cy="314.68" r="26.73"/>
		<circle class="st2" cx="372.59" cy="312.89" r="26.73"/>
	</g>
	<g>
		<g>
			<path class="st3" d="M274.99,419c0.11,0,0.22,0,0.34,0c2.48,0.04,4.9,0.4,7.21,1.36c3.06,1.27,5.45,3.3,7.11,6.18
				c0.13,0.22,0.24,0.44,0.37,0.66c0.06,0.1,0.13,0.18,0.19,0.26c0.25-0.04,0.27-0.24,0.35-0.39c0.45-0.86,0.97-1.68,1.58-2.44
				c1.2-1.49,2.65-2.66,4.32-3.57c1.6-0.86,3.3-1.43,5.09-1.75c1.11-0.2,2.23-0.32,3.36-0.32c0.08,0,0.15,0,0.23,0
				c2.38,0.04,4.71,0.37,6.95,1.24c3.57,1.39,6.32,3.73,8.18,7.09c1.01,1.83,1.65,3.8,2.02,5.85c0.25,1.4,0.36,2.8,0.36,4.22
				c0,9.6,0,19.19,0,28.79c0,0.14,0,0.27-0.01,0.41c-0.02,0.26-0.09,0.33-0.37,0.34c-0.08,0-0.15,0.01-0.23,0.01
				c-0.06,0-0.12,0-0.18,0c0,0,0,0,0,0c-1.22,0-2.44,0-3.66,0c-1.61,0-3.22,0-4.84,0c-0.17,0-0.35,0-0.52-0.02
				c-0.13-0.01-0.22-0.1-0.23-0.23c-0.02-0.21-0.02-0.43-0.02-0.64c0-8.82,0-17.64,0-26.47c0-0.48,0.02-0.97-0.01-1.45
				c-0.1-1.65-0.36-3.27-1-4.81c-1.09-2.64-3-4.32-5.78-5.02c-0.99-0.25-1.99-0.37-3-0.37c-0.35,0-0.69,0.01-1.04,0.04
				c-1.34,0.1-2.64,0.41-3.86,1.01c-1.76,0.87-3.09,2.18-4.04,3.89c-0.72,1.3-1.15,2.71-1.4,4.16c-0.18,1.01-0.25,2.03-0.25,3.06
				c0.01,8.67,0,17.33,0,26c0,0.19,0,0.39-0.02,0.58c-0.01,0.13-0.09,0.22-0.22,0.23c-0.13,0.02-0.27,0.02-0.41,0.02
				c-1.59,0-3.17,0-4.76,0c-1.21,0-2.42,0-3.63,0c-0.65,0-0.66-0.01-0.66-0.64c0-0.17,0-0.35,0-0.52c0-8.59,0-17.18,0-25.77
				c0-1.63-0.17-3.25-0.57-4.83c-0.31-1.23-0.78-2.4-1.48-3.46c-1.28-1.92-3.08-3.06-5.33-3.54c-0.8-0.17-1.61-0.24-2.42-0.24
				c-0.29,0-0.59,0.01-0.88,0.03c-1.7,0.11-3.33,0.49-4.83,1.33c-1.98,1.12-3.31,2.78-4.1,4.89c-0.37,0.98-0.61,2-0.74,3.04
				c-0.13,1.04-0.19,2.08-0.19,3.13c0,8.53,0,17.06,0,25.59c0,0.21,0,0.43-0.01,0.64c-0.02,0.26-0.1,0.33-0.37,0.35
				c-0.07,0-0.14,0.01-0.21,0.01c-0.05,0-0.09,0-0.14,0c0,0,0,0,0,0c-0.17,0-0.33,0-0.5,0c-1.34,0-2.67,0-4.01,0
				c-1.29,0-2.59,0-3.88,0c-0.01,0-0.02,0-0.04,0c-0.71,0-0.69-0.03-0.69-0.75c0-15.18,0-30.36,0-45.54c0-0.71,0-0.73,0.67-0.73
				c0.02,0,0.05,0,0.08,0c1.29,0,2.58,0,3.88,0c0.03,0,0.06,0,0.09,0c1.18,0,2.36,0,3.54,0c0,0,0,0,0,0c0.08,0,0.16-0.01,0.24-0.01
				c0.14,0,0.29,0.02,0.46,0.11c0.09,0.35,0.18,0.7,0.26,1.06c0.28,1.25,0.56,2.49,0.83,3.74c0.03,0.13,0.06,0.26,0.23,0.33
				c0.2-0.1,0.29-0.31,0.4-0.48c0.86-1.27,1.94-2.31,3.21-3.17c1.47-0.99,3.08-1.63,4.79-2.03C272.2,419.15,273.59,419,274.99,419
				 M274.99,417c-1.58,0-3.13,0.18-4.62,0.52c-2.08,0.48-3.86,1.24-5.46,2.32c-0.54,0.36-1.04,0.75-1.52,1.18
				c-0.03-0.12-0.06-0.25-0.08-0.37c-0.06-0.26-0.12-0.52-0.19-0.78l-0.08-0.32c-0.14-0.56-0.51-1.03-1.02-1.29
				c-0.43-0.22-0.88-0.33-1.39-0.33c-0.07,0-0.14,0-0.2,0l-3.58,0h-0.09c-1.29,0-2.58,0-3.87,0l-0.08,0c-0.49,0-1.4,0-2.09,0.78
				c-0.58,0.66-0.58,1.41-0.58,1.95c0,15.18,0,30.36,0,45.54l0,0.06c0,0.52,0,1.31,0.63,1.98c0.68,0.72,1.54,0.72,2.05,0.72l3.92,0
				l2,0l2,0l0.5,0l0.06,0l0.08,0c0.12,0,0.23,0,0.35-0.01c1.27-0.09,2.14-0.95,2.23-2.21c0.02-0.22,0.02-0.44,0.02-0.66l0-0.11
				l0-3.37c0-7.41,0-14.82,0-22.22c0-0.99,0.06-1.96,0.17-2.88c0.11-0.91,0.32-1.78,0.63-2.58c0.65-1.74,1.7-3,3.21-3.85
				c1.11-0.63,2.41-0.98,3.97-1.08c0.25-0.02,0.5-0.02,0.75-0.02c0.71,0,1.37,0.07,2,0.2c1.79,0.38,3.13,1.26,4.09,2.69
				c0.53,0.79,0.93,1.72,1.21,2.83c0.34,1.36,0.51,2.78,0.51,4.34c0,6.39,0,12.77,0,19.16l0,6.6l0,0.15c0,0.13,0,0.26,0,0.39
				c0.02,1.74,0.91,2.62,2.66,2.62l3.63,0l4.76,0c0.2,0,0.41,0,0.65-0.03c1.07-0.13,1.88-0.98,1.97-2.06
				c0.02-0.25,0.02-0.49,0.02-0.74l0-4.85c0-7.05,0-14.1,0-21.15c0-0.98,0.07-1.87,0.22-2.72c0.24-1.37,0.63-2.53,1.19-3.54
				c0.77-1.39,1.8-2.39,3.17-3.07c0.91-0.45,1.94-0.71,3.13-0.81c0.29-0.02,0.59-0.03,0.88-0.03c0.86,0,1.71,0.1,2.52,0.31
				c2.15,0.54,3.56,1.76,4.41,3.84c0.48,1.17,0.75,2.49,0.85,4.17c0.02,0.29,0.01,0.6,0.01,0.93l0,0.4l0,11.81l0,14.66
				c0,0.26,0,0.53,0.02,0.79c0.08,1.1,0.94,1.97,2.03,2.07c0.25,0.02,0.49,0.03,0.71,0.03l4.84,0l3.66,0l0.08,0l0.1,0
				c0.12,0,0.24,0,0.36-0.01c1.26-0.08,2.14-0.94,2.24-2.18c0.01-0.17,0.02-0.34,0.01-0.51l0-0.06l0-8.19c0-6.87,0-13.74,0-20.61
				c0-1.58-0.13-3.12-0.39-4.57c-0.43-2.41-1.16-4.53-2.23-6.47c-2.06-3.73-5.16-6.41-9.2-7.98c-2.28-0.88-4.78-1.33-7.64-1.38
				l-0.26,0c-1.17,0-2.38,0.11-3.7,0.35c-2.04,0.36-3.95,1.02-5.69,1.96c-1.94,1.05-3.6,2.42-4.93,4.08
				c-0.11,0.14-0.23,0.29-0.34,0.44c-1.76-2.34-4.09-4.12-6.93-5.3c-2.32-0.97-4.92-1.46-7.94-1.51
				C275.24,417,275.12,417,274.99,417L274.99,417z"/>
		</g>
		<g>
			<path class="st3" d="M34.37,401.51c0.02,0,0.03,0,0.05,0c0.04,0,0.07,0,0.11,0c0.08,0,0.16,0,0.24,0c1.63,0,3.26,0,4.89,0
				c1.34,0,2.68,0,4.02,0c0,0,0.01,0,0.01,0c0.06,0,0.12,0,0.17,0c0.59,0,0.56,0.03,0.82,0.69c1.26,3.29,2.52,6.58,3.78,9.88
				c1.27,3.31,2.53,6.62,3.79,9.93c2.13,5.57,4.26,11.15,6.39,16.72c2.2,5.75,4.4,11.51,6.6,17.26c1.31,3.44,2.63,6.88,3.94,10.31
				c0.06,0.16,0.1,0.33,0.16,0.52c-0.11,0.04-0.19,0.1-0.27,0.11c-0.09,0.01-0.17,0.01-0.26,0.01c-0.07,0-0.14,0-0.2,0c0,0,0,0,0,0
				c-1.74,0-3.48,0-5.21,0c-1.42,0-2.85,0-4.27,0c0,0-0.01,0-0.01,0c-0.12,0-0.22,0-0.31,0c-0.42,0-0.45-0.05-0.69-0.68
				c-1.7-4.55-3.4-9.11-5.11-13.66c-0.24-0.63-0.27-0.68-0.68-0.68c-0.09,0-0.19,0-0.32,0c0,0,0,0,0,0c-4.33,0-8.66,0-12.98,0
				c-4.44,0-8.89,0-13.33,0c0,0,0,0,0,0c-0.14,0-0.25,0-0.35,0c-0.42,0-0.44,0.06-0.69,0.72c-1.71,4.55-3.41,9.11-5.11,13.66
				c-0.24,0.64-0.24,0.64-0.91,0.64c-1.29,0-2.57,0-3.86,0c-1.74,0-3.48,0-5.22,0c-0.17,0-0.34-0.02-0.53-0.02
				c-0.05-0.3,0.07-0.49,0.14-0.68c1.91-4.97,3.82-9.94,5.73-14.92c2.05-5.34,4.09-10.67,6.13-16.01c1.71-4.47,3.44-8.93,5.15-13.4
				c1.85-4.83,3.7-9.66,5.55-14.49c0.69-1.79,1.38-3.58,2.07-5.37c0.02-0.05,0.04-0.11,0.06-0.16
				C33.93,401.62,34.11,401.51,34.37,401.51 M28.94,443.74c0.01,0,0.03,0,0.04,0c3.85,0,7.69,0,11.54,0c2.77,0,5.54,0,8.31,0
				c0,0,0,0,0,0c0.07,0,0.13,0,0.2,0c0.07,0,0.14,0,0.21-0.01c0.11-0.02,0.21-0.07,0.31-0.1c0.03-0.34-0.12-0.6-0.22-0.87
				c-0.82-2.2-1.64-4.39-2.46-6.59c-1.05-2.83-2.11-5.66-3.16-8.49c-0.94-2.52-1.88-5.05-2.82-7.57c-0.54-1.45-1.08-2.9-1.63-4.35
				c-0.07-0.19-0.1-0.42-0.32-0.58c-0.06,0.03-0.12,0.04-0.13,0.07c-3.52,9.33-7.04,18.66-10.55,27.99
				c-0.04,0.1-0.05,0.22-0.08,0.36c0.1,0.05,0.18,0.11,0.27,0.12C28.62,443.74,28.78,443.74,28.94,443.74 M34.37,399.51
				C34.37,399.51,34.37,399.51,34.37,399.51c-1.14,0-2.1,0.71-2.43,1.8l-0.71,1.83c-0.46,1.19-0.92,2.38-1.37,3.57l-2.32,6.05
				c-1.08,2.81-2.15,5.63-3.23,8.44c-0.85,2.21-1.7,4.41-2.55,6.62c-0.87,2.26-1.74,4.52-2.61,6.78c-1.01,2.62-2.01,5.24-3.01,7.86
				c-1.04,2.72-2.08,5.43-3.12,8.15c-0.88,2.29-1.76,4.59-2.64,6.88c-1.03,2.68-2.06,5.36-3.09,8.04c-0.13,0.29-0.39,0.91-0.25,1.74
				c0.16,0.92,0.94,1.61,1.87,1.66l0.15,0.01c0.16,0.01,0.32,0.02,0.47,0.02l5.22,0l3.86,0c1.5,0,2.25-0.52,2.78-1.93l0.78-2.09
				c1.37-3.66,2.74-7.33,4.11-10.99l12.71,0l12.35,0c1.63,4.35,3.26,8.69,4.88,13.04c0.26,0.69,0.74,1.98,2.56,1.98l0.15,0l0.16,0
				l4.28,0l3.25,0l1.97,0l0.08,0l0.12,0c0.17,0,0.33-0.01,0.5-0.03c0.4-0.05,0.69-0.19,0.83-0.26c0.94-0.4,1.42-1.45,1.12-2.43
				l-0.05-0.15c-0.05-0.17-0.1-0.33-0.16-0.49c-1.31-3.44-2.63-6.88-3.94-10.32l-3.65-9.54l-2.96-7.72l-6.39-16.72l-1.87-4.9
				l-1.92-5.03l-1.58-4.13c-0.73-1.91-1.47-3.83-2.2-5.74l-0.04-0.1c-0.43-1.13-1.04-1.88-2.65-1.88l-0.08,0l-0.09,0l-4.03,0
				l-3.09,0l-1.8,0l-0.16,0l-0.08,0C34.48,399.51,34.42,399.51,34.37,399.51L34.37,399.51z M30.97,441.74
				c2.65-7.05,5.31-14.09,7.97-21.14l0.08,0.21l2.82,7.57l1.2,3.23l1.96,5.27l1,2.69c0.27,0.73,0.54,1.45,0.81,2.18l-6.29,0
				L30.97,441.74L30.97,441.74z"/>
		</g>
		<g>
			<path class="st3" d="M105.32,419c1.05,0,2.1,0.1,3.16,0.19c1.49,0.14,2.95,0.42,4.39,0.84c2.45,0.72,4.7,1.81,6.66,3.46
				c2.05,1.72,3.52,3.85,4.46,6.36c0.53,1.4,0.87,2.85,1.05,4.34c0.13,1.12,0.21,2.24,0.21,3.36c0,6.24,0,12.49,0,18.73
				c0,0.47,0.01,0.93,0.11,1.39c0.23,1.03,0.79,1.6,1.81,1.8c0.38,0.08,0.76,0.12,1.14,0.12c0.02,0,0.05,0,0.07,0
				c0.18,0,0.36,0,0.54,0c0.3,0,0.61,0,0.91,0.01c0.2,0,0.28,0.09,0.3,0.29c0.01,0.12,0.01,0.23,0.01,0.35c0,2.02,0,4.03,0,6.05
				c0,0.65-0.01,0.66-0.62,0.66c-0.01,0-0.01,0-0.02,0c-0.02,0-0.05,0-0.07,0c-1.02,0-2.04,0.01-3.06,0.01
				c-0.92,0-1.83-0.01-2.75-0.03c-1.41-0.03-2.76-0.37-4-1.07c-1.02-0.58-1.81-1.38-2.36-2.42c-0.28-0.53-0.49-1.1-0.64-1.68
				c-0.05-0.2-0.11-0.41-0.17-0.63c-0.01,0-0.01,0-0.02,0c-0.26,0-0.32,0.16-0.4,0.27c-0.48,0.69-1.05,1.3-1.66,1.87
				c-1.26,1.17-2.71,2.06-4.29,2.75c-1.7,0.74-3.46,1.24-5.29,1.52c-0.65,0.1-1.31,0.16-1.96,0.24c-0.67,0.08-1.35,0.1-2.02,0.1
				c-0.6,0-1.21-0.02-1.81-0.02c-0.65-0.01-1.31-0.14-1.96-0.2c-0.89-0.09-1.76-0.26-2.62-0.48c-2.13-0.54-4.1-1.4-5.85-2.75
				c-1.98-1.52-3.39-3.44-4.21-5.8c-0.37-1.05-0.59-2.12-0.73-3.22c-0.12-1.03-0.13-2.05-0.07-3.08c0.15-2.44,0.82-4.73,2.26-6.74
				c0.98-1.38,2.24-2.47,3.69-3.32c1.68-0.98,3.49-1.59,5.38-1.99c1.2-0.25,2.41-0.4,3.62-0.5c0.87-0.07,1.74-0.09,2.62-0.09
				c2.4,0,4.79,0,7.19,0c0.8,0,1.6,0,2.4,0c1.21,0,2.42,0,3.62,0c0.21,0,0.43-0.01,0.64-0.02c0.15-0.01,0.25-0.11,0.28-0.26
				c0.03-0.13,0.04-0.27,0.04-0.4c0-0.72,0.03-1.44,0-2.15c-0.06-1.3-0.21-2.58-0.63-3.83c-0.96-2.81-2.89-4.62-5.71-5.5
				c-0.87-0.27-1.76-0.43-2.68-0.51c-0.5-0.04-0.99-0.09-1.49-0.09c-0.1,0-0.2,0-0.31,0.01c-1.81,0.07-3.59,0.33-5.26,1.06
				c-1.74,0.76-3.15,1.89-4.1,3.56c-0.52,0.91-0.8,1.89-0.94,2.91c-0.01,0.08-0.01,0.16-0.02,0.23c-0.03,0.16-0.11,0.23-0.28,0.24
				c-0.09,0.01-0.19,0.01-0.28,0.01c-0.02,0-0.04,0-0.06,0c0,0,0,0,0,0c-1.35,0-2.71,0-4.06,0c-1.27,0-2.53,0-3.8,0
				c-0.04,0-0.08,0-0.11,0c-0.06,0-0.12,0-0.18-0.01c-0.23-0.02-0.32-0.1-0.33-0.32c0-0.31-0.01-0.62,0.02-0.93
				c0.22-1.86,0.68-3.65,1.52-5.34c1.09-2.2,2.67-3.98,4.65-5.42c2.12-1.54,4.49-2.51,7.02-3.13c1.19-0.29,2.39-0.49,3.61-0.61
				c1.02-0.1,2.05-0.16,3.08-0.19C105.06,419,105.19,419,105.32,419 M106.22,446.39c-0.72,0-1.44-0.01-2.17-0.01
				c-0.82,0-1.63,0.01-2.45,0.06c-0.78,0.05-1.54,0.14-2.3,0.29c-0.8,0.16-1.57,0.41-2.3,0.78c-1.51,0.77-2.56,1.93-3.01,3.58
				c-0.39,1.42-0.35,2.83,0.09,4.23c0.41,1.28,1.18,2.3,2.28,3.06c0.77,0.53,1.62,0.91,2.52,1.16c1.03,0.29,2.09,0.44,3.15,0.49
				c0.27,0.01,0.53,0.02,0.8,0.02c1.48,0,2.94-0.2,4.38-0.59c1.75-0.48,3.33-1.27,4.67-2.5c2.07-1.91,3.05-4.34,3.31-7.09
				c0.09-0.89,0.1-1.78,0.08-2.67c0-0.17-0.01-0.35-0.03-0.52c-0.02-0.15-0.12-0.25-0.27-0.26c-0.21-0.02-0.42-0.03-0.64-0.03
				c-1.07,0-2.14,0-3.21,0c-0.81,0-1.61,0-2.42,0c-0.06,0-0.12,0-0.19,0c-0.27,0-0.54,0-0.81,0c-0.16,0-0.32,0-0.47,0
				C106.91,446.39,106.57,446.39,106.22,446.39 M105.32,417c-0.14,0-0.29,0-0.43,0.01c-1.14,0.03-2.19,0.09-3.23,0.2
				c-1.38,0.14-2.65,0.36-3.88,0.66c-3.01,0.74-5.53,1.87-7.72,3.46c-2.3,1.67-4.07,3.74-5.27,6.15c-0.89,1.79-1.45,3.75-1.72,5.99
				c-0.05,0.42-0.04,0.79-0.04,1.13l0,0.07c0.02,1.25,0.91,2.19,2.16,2.29c0.11,0.01,0.22,0.01,0.34,0.01l0.07,0l3.84,0l4.06,0
				l0.07-2v2c0.15,0,0.31,0,0.46-0.02c1.06-0.1,1.87-0.83,2.06-1.88c0.02-0.12,0.03-0.23,0.04-0.35c0.13-0.86,0.35-1.57,0.69-2.16
				c0.68-1.2,1.72-2.09,3.16-2.72c1.23-0.53,2.67-0.82,4.55-0.9c0.07,0,0.15,0,0.23,0c0.38,0,0.79,0.03,1.23,0.07l0.09,0.01
				c0.83,0.07,1.56,0.21,2.24,0.42c2.27,0.71,3.67,2.06,4.42,4.24c0.3,0.88,0.46,1.88,0.53,3.27c0.01,0.24,0.01,0.49,0.01,0.74
				l-2.59,0h-1.2l-1.2,0c-2.4,0-4.79,0-7.19,0c-0.76,0-1.76,0.01-2.78,0.1c-1.52,0.13-2.74,0.3-3.87,0.53
				c-2.29,0.48-4.24,1.21-5.97,2.22c-1.76,1.02-3.21,2.33-4.32,3.88c-1.56,2.18-2.44,4.8-2.62,7.78c-0.08,1.23-0.05,2.35,0.08,3.44
				c0.16,1.32,0.43,2.51,0.83,3.64c0.94,2.7,2.59,4.96,4.88,6.72c1.86,1.43,4.01,2.44,6.58,3.1c1.09,0.28,2.02,0.45,2.93,0.54
				c0.21,0.02,0.41,0.05,0.62,0.08c0.45,0.06,0.97,0.13,1.51,0.13l0.64,0.01c0.4,0.01,0.8,0.01,1.19,0.01c0.88,0,1.6-0.04,2.26-0.11
				l0.58-0.06c0.48-0.05,0.96-0.11,1.45-0.18c2.01-0.3,3.96-0.86,5.79-1.67c1.87-0.82,3.45-1.83,4.82-3.09
				c0.71,1.19,1.69,2.14,2.93,2.84c1.48,0.84,3.14,1.28,4.94,1.33c0.82,0.02,1.68,0.03,2.8,0.03c0.51,0,1.02,0,1.54,0
				c0.51,0,1.01,0,1.52,0h0.07c1.21,0,2.64-0.46,2.64-2.66l0-5l0-1.05l0-0.05c0-0.16,0-0.32-0.02-0.47
				c-0.11-1.21-1.03-2.08-2.24-2.11c-0.32-0.01-0.64-0.01-0.96-0.01c-0.19,0-0.38,0-0.57,0c0,0,0,0,0,0c-0.26,0-0.51-0.03-0.79-0.08
				c-0.11-0.02-0.16-0.04-0.18-0.05c0-0.01-0.03-0.08-0.06-0.22c-0.06-0.27-0.06-0.6-0.06-0.95l0-3.81c0-4.97,0-9.95,0-14.92
				c0-1.14-0.07-2.31-0.22-3.6c-0.2-1.66-0.59-3.28-1.16-4.81c-1.07-2.85-2.77-5.27-5.05-7.18c-2.07-1.74-4.48-3-7.38-3.85
				c-1.56-0.46-3.17-0.77-4.77-0.91C107.57,417.1,106.46,417,105.32,417L105.32,417z M106.22,448.39c0.35,0,0.71,0,1.06-0.01
				c0.15,0,0.29,0,0.44,0l0.4,0l0.41,0h0.19l1.21,0l1.21,0l2.16,0c-0.01,0.46-0.04,0.89-0.08,1.29c-0.24,2.48-1.11,4.38-2.68,5.82
				c-1.03,0.95-2.29,1.62-3.84,2.04c-1.26,0.34-2.55,0.52-3.85,0.52c-0.23,0-0.47-0.01-0.7-0.02c-1.01-0.05-1.89-0.18-2.7-0.41
				c-0.74-0.21-1.37-0.5-1.93-0.89c-0.75-0.52-1.25-1.18-1.51-2.02c-0.33-1.05-0.35-2.06-0.07-3.1c0.28-1.04,0.92-1.77,1.99-2.33
				c0.52-0.27,1.12-0.47,1.78-0.6c0.64-0.13,1.3-0.21,2.03-0.25c0.84-0.05,1.69-0.06,2.33-0.06c0.36,0,0.71,0,1.07,0
				C105.49,448.39,105.86,448.39,106.22,448.39L106.22,448.39z"/>
		</g>
		<g>
			<path class="st3" d="M362.68,419c1.19,0,2.37,0.08,3.55,0.2c1.84,0.18,3.63,0.56,5.38,1.17c2.03,0.71,3.91,1.7,5.56,3.09
				c2.06,1.72,3.54,3.84,4.49,6.34c0.53,1.4,0.88,2.84,1.06,4.33c0.15,1.21,0.21,2.43,0.21,3.65c-0.01,6.18,0,12.37,0,18.55
				c0,0.45,0,0.89,0.12,1.33c0.02,0.07,0.04,0.15,0.06,0.23c0.23,0.87,0.81,1.4,1.68,1.57c0.4,0.08,0.81,0.11,1.21,0.13
				c0.18,0.01,0.37,0.01,0.55,0.01c0.19,0,0.39,0,0.58,0c0.11,0,0.21,0,0.32,0c0.27,0.01,0.34,0.08,0.36,0.35
				c0.01,0.1,0,0.19,0,0.29c0,2.02,0,4.03,0,6.05c0,0.65-0.01,0.66-0.62,0.66c0,0-0.01,0-0.01,0c-0.02,0-0.04,0-0.06,0
				c-0.99,0-1.98,0.01-2.97,0.01c-0.93,0-1.86-0.01-2.79-0.02c-1.35-0.03-2.65-0.33-3.86-0.96c-1.36-0.72-2.32-1.79-2.87-3.23
				c-0.15-0.38-0.24-0.78-0.35-1.17c-0.04-0.15-0.1-0.29-0.15-0.46c-0.3,0.04-0.37,0.24-0.48,0.39c-0.52,0.71-1.11,1.34-1.76,1.93
				c-1.19,1.07-2.55,1.9-4.01,2.55c-1.71,0.76-3.49,1.25-5.34,1.56c-1.43,0.24-2.87,0.35-4.31,0.35c-0.47,0-0.95-0.01-1.42-0.04
				c-2.85-0.14-5.61-0.68-8.19-1.96c-1.54-0.77-2.91-1.77-4.07-3.05c-1.52-1.68-2.47-3.65-2.97-5.84c-0.34-1.52-0.43-3.07-0.33-4.62
				c0.11-1.69,0.45-3.34,1.17-4.89c1.1-2.4,2.86-4.17,5.16-5.42c1.56-0.85,3.23-1.41,4.96-1.78c1.2-0.25,2.41-0.39,3.62-0.5
				c0.97-0.09,1.94-0.1,2.91-0.1c2.2,0,4.4,0,6.6,0c1.13,0,2.26,0,3.4,0c0.99,0,1.99,0,2.98,0c0.21,0,0.43-0.01,0.64-0.02
				c0.16-0.01,0.25-0.11,0.28-0.26c0.03-0.13,0.03-0.27,0.03-0.4c0-0.74,0.03-1.47-0.01-2.21c-0.07-1.56-0.29-3.08-0.92-4.53
				c-0.95-2.18-2.55-3.67-4.76-4.52c-1.07-0.41-2.18-0.64-3.33-0.74c-0.5-0.04-1.01-0.09-1.51-0.09c-0.1,0-0.19,0-0.29,0.01
				c-1.81,0.07-3.59,0.33-5.27,1.06c-1.47,0.64-2.73,1.56-3.66,2.87c-0.66,0.93-1.09,1.96-1.29,3.08c-0.04,0.25-0.08,0.5-0.12,0.74
				c-0.03,0.16-0.12,0.24-0.28,0.25c-0.14,0.01-0.27,0.01-0.41,0.01c-1.45,0-2.9,0-4.35,0c-1.13,0-2.26,0-3.39,0
				c-0.69,0-0.7,0-0.67-0.67c0.04-1.07,0.23-2.12,0.51-3.15c0.95-3.54,2.98-6.31,5.97-8.4c1.92-1.33,4.04-2.21,6.28-2.82
				c1.14-0.31,2.31-0.51,3.48-0.67c0.61-0.08,1.24-0.11,1.85-0.15c0.6-0.04,1.2-0.09,1.8-0.09C362.65,419,362.66,419,362.68,419
				 M360.43,460.05c0.59,0,1.18-0.04,1.78-0.09c1.2-0.12,2.38-0.34,3.51-0.74c3.43-1.21,5.75-3.5,6.76-7.03
				c0.23-0.8,0.36-1.62,0.44-2.45c0.08-0.85,0.06-1.7,0.07-2.55c0-0.15-0.01-0.31-0.02-0.46c-0.02-0.17-0.13-0.29-0.3-0.3
				c-0.21-0.02-0.43-0.03-0.64-0.03c-1.09,0-2.18,0-3.27,0c-0.83,0-1.66,0-2.5,0c-0.04,0-0.07,0-0.11,0c-0.7,0-1.39,0-2.09,0
				c-0.45,0-0.89,0-1.34,0c-1.14,0.01-2.28-0.01-3.43,0.06c-0.78,0.05-1.54,0.14-2.3,0.29c-0.82,0.16-1.61,0.42-2.35,0.81
				c-1.64,0.86-2.68,2.18-3.05,4.02c-0.2,1.02-0.19,2.04,0.02,3.05c0.28,1.4,0.96,2.56,2.07,3.47c0.74,0.61,1.59,1.03,2.5,1.33
				c1.22,0.4,2.49,0.58,3.77,0.62C360.1,460.05,360.27,460.05,360.43,460.05 M362.68,417c0,0-0.05,0-0.05,0
				c-0.55,0-1.07,0.04-1.57,0.07l-0.36,0.03l-0.4,0.03c-0.51,0.03-1.04,0.06-1.59,0.14c-1.5,0.2-2.66,0.43-3.74,0.72
				c-2.7,0.74-4.96,1.75-6.9,3.11c-3.44,2.39-5.71,5.6-6.76,9.52c-0.34,1.29-0.53,2.46-0.57,3.59c-0.02,0.5-0.05,1.35,0.62,2.05
				c0.67,0.7,1.5,0.7,2.05,0.7l3.39,0l3.73,0l0.62,0c0.17,0,0.35,0,0.52-0.01c1.1-0.06,1.96-0.84,2.14-1.93
				c0.04-0.27,0.08-0.5,0.12-0.73c0.14-0.82,0.45-1.56,0.94-2.26c0.67-0.94,1.59-1.66,2.83-2.19c1.24-0.54,2.68-0.82,4.55-0.9
				c0.07,0,0.14,0,0.21,0c0.36,0,0.74,0.03,1.15,0.06l0.2,0.02c1.01,0.08,1.92,0.28,2.78,0.61c1.73,0.66,2.92,1.79,3.65,3.45
				c0.45,1.03,0.69,2.21,0.76,3.81c0.01,0.26,0.01,0.53,0.01,0.81l-1.94,0l-1.7,0l-1.7,0c-2.2,0-4.4,0-6.6,0
				c-0.97,0-2,0.01-3.08,0.1c-1.55,0.14-2.74,0.3-3.86,0.54c-2.06,0.43-3.86,1.08-5.51,1.98c-2.75,1.49-4.77,3.63-6.02,6.34
				c-0.77,1.68-1.21,3.52-1.35,5.6c-0.11,1.82,0.01,3.56,0.38,5.19c0.59,2.62,1.75,4.89,3.44,6.75c1.3,1.43,2.87,2.6,4.66,3.5
				c2.6,1.29,5.54,2,8.98,2.17c0.51,0.03,1.02,0.04,1.52,0.04c1.58,0,3.14-0.13,4.64-0.38c2.14-0.36,4.04-0.91,5.82-1.7
				c1.73-0.77,3.25-1.74,4.54-2.89c0.06-0.05,0.12-0.11,0.18-0.16c0.75,1.26,1.82,2.26,3.18,2.98c1.44,0.75,3.03,1.15,4.74,1.19
				c0.94,0.02,1.89,0.02,2.83,0.02l1.49,0l1.48,0h0.06c1.21,0,2.63-0.46,2.64-2.66l0-4.68l0-1.37l0-0.05c0-0.13,0-0.25-0.01-0.37
				c-0.09-1.29-1.02-2.18-2.31-2.21c-0.12,0-0.24,0-0.36,0l-0.3,0l-0.28,0c-0.15,0-0.31,0-0.46-0.01c-0.27-0.01-0.62-0.03-0.91-0.09
				c-0.06-0.01-0.1-0.03-0.12-0.03c0-0.01-0.01-0.04-0.03-0.1l-0.01-0.06c-0.01-0.06-0.03-0.12-0.04-0.17
				c-0.05-0.19-0.05-0.5-0.05-0.8l0-5.96c0-4.2,0-8.39,0-12.59c0-1.31-0.08-2.62-0.23-3.89c-0.2-1.66-0.6-3.27-1.18-4.81
				c-1.08-2.85-2.79-5.26-5.07-7.16c-1.76-1.47-3.84-2.62-6.19-3.44c-1.85-0.64-3.82-1.07-5.84-1.27
				C364.98,417.06,363.78,417,362.68,417L362.68,417z M360.43,458.05c-0.14,0-0.28,0-0.41-0.01c-1.22-0.04-2.27-0.22-3.22-0.53
				c-0.74-0.24-1.35-0.56-1.86-0.98c-0.73-0.6-1.18-1.36-1.37-2.32c-0.16-0.78-0.16-1.52-0.01-2.27c0.24-1.2,0.88-2.04,2.02-2.64
				c0.53-0.28,1.13-0.48,1.81-0.62c0.65-0.13,1.32-0.21,2.03-0.26c0.8-0.05,1.61-0.05,2.46-0.05c0.29,0,0.57,0,0.86,0
				c0.44,0,0.88,0,1.33,0l1.04,0l1.05,0h0.11l1.25,0l1.25,0l2.22,0c-0.01,0.4-0.02,0.78-0.06,1.16c-0.08,0.83-0.2,1.5-0.37,2.1
				c-0.8,2.81-2.6,4.67-5.5,5.69c-0.9,0.32-1.89,0.52-3.04,0.63C361.42,458.02,360.9,458.05,360.43,458.05L360.43,458.05z"/>
		</g>
		<g>
			<path class="st3" d="M467.9,418.93c0.56,0,1.13,0.01,1.69,0.03c1.85,0.06,3.66,0.35,5.44,0.84c3.87,1.06,7.23,2.98,9.97,5.92
				c1.6,1.71,2.86,3.66,3.82,5.8c0.86,1.92,1.43,3.93,1.79,6c0.14,0.82,0.22,1.65,0.29,2.48c0.16,1.88,0.05,3.76,0.09,5.64
				c0,0.08,0,0.16-0.01,0.23c-0.02,0.13-0.1,0.22-0.22,0.23c-0.17,0.02-0.35,0.02-0.52,0.02c-1.32,0-2.63,0-3.95,0
				c-0.84,0-1.68,0-2.51,0c-2.1,0-4.2,0-6.3,0c-7.22,0-14.43,0-21.65,0c-0.02,0-0.05,0-0.07,0c-0.21,0-0.42,0-0.63,0.01
				c-0.18,0.01-0.27,0.11-0.3,0.3c-0.01,0.06-0.02,0.12-0.01,0.17c0.15,2.73,0.75,5.33,2.29,7.64c1.46,2.21,3.47,3.73,5.95,4.63
				c1.32,0.48,2.68,0.74,4.08,0.84c0.4,0.03,0.8,0.04,1.19,0.04c0.51,0,1.03-0.02,1.54-0.07c2.89-0.28,5.51-1.24,7.67-3.25
				c1.11-1.03,1.96-2.25,2.58-3.62c0.33-0.72,0.29-0.79,0.77-0.79c0.11,0,0.26,0,0.44,0c0.01,0,0.01,0,0.02,0c1.19,0,2.38,0,3.57,0
				c1.62,0,3.25,0,4.87,0c0,0,0,0,0,0c0.09,0,0.18-0.01,0.27-0.01c0.12,0,0.25,0.02,0.38,0.09c-0.03,0.15-0.05,0.3-0.09,0.45
				c-1.15,3.91-3.25,7.23-6.35,9.89c-2.19,1.88-4.69,3.23-7.42,4.13c-1.31,0.43-2.64,0.75-4.01,0.95c-0.69,0.1-1.38,0.16-2.07,0.24
				c-0.67,0.08-1.34,0.1-2.01,0.1c-0.65,0-1.3-0.02-1.95-0.02c-0.65-0.01-1.31-0.14-1.96-0.2c-1.1-0.1-2.18-0.32-3.25-0.6
				c-4.24-1.11-7.87-3.23-10.77-6.54c-1.46-1.66-2.61-3.51-3.51-5.53c-0.87-1.96-1.46-4-1.83-6.11c-0.13-0.72-0.17-1.46-0.28-2.19
				c-0.16-1.06-0.08-2.13-0.2-3.19c-0.02-0.19,0.02-0.39,0.03-0.58c0.02-0.5,0.04-1.01,0.06-1.51c0.19-3.84,1.07-7.51,2.85-10.93
				c1.8-3.47,4.36-6.25,7.71-8.28c2.04-1.24,4.23-2.09,6.56-2.63c0.98-0.23,1.98-0.38,2.98-0.49
				C465.93,418.97,466.91,418.93,467.9,418.93 M455.68,439.32c0.09,0,0.17,0,0.26,0c4,0,7.99,0,11.99,0c4,0,7.99,0,11.99,0
				c0.09,0,0.18,0,0.27,0c0.1,0,0.21,0,0.31-0.01c0.13-0.01,0.26-0.06,0.35-0.09c0.12-0.2,0.1-0.37,0.08-0.55
				c-0.02-0.17-0.07-0.34-0.08-0.52c-0.11-1.24-0.42-2.44-0.85-3.61c-0.52-1.41-1.28-2.69-2.28-3.82c-1.33-1.5-2.97-2.53-4.85-3.21
				c-1.06-0.38-2.16-0.61-3.28-0.71c-0.49-0.04-0.98-0.06-1.47-0.06c-0.25,0-0.49,0-0.74,0.01c-1.13,0.03-2.24,0.19-3.32,0.5
				c-2.58,0.72-4.73,2.1-6.37,4.25c-1.04,1.36-1.74,2.88-2.2,4.52c-0.26,0.91-0.43,1.85-0.53,2.79c-0.04,0.35,0.05,0.46,0.4,0.48
				C455.46,439.32,455.57,439.32,455.68,439.32 M467.9,416.93c-1.17,0-2.2,0.05-3.17,0.16c-1.18,0.13-2.23,0.3-3.21,0.53
				c-2.6,0.6-5,1.57-7.14,2.87c-3.62,2.2-6.46,5.25-8.45,9.07c-1.82,3.5-2.85,7.46-3.07,11.75c-0.02,0.32-0.03,0.64-0.04,0.95
				l-0.02,0.57l-0.01,0.09c-0.02,0.19-0.05,0.47-0.01,0.81c0.05,0.4,0.06,0.82,0.07,1.28c0.02,0.63,0.03,1.28,0.14,1.98
				c0.04,0.29,0.08,0.59,0.11,0.88c0.05,0.44,0.1,0.89,0.18,1.36c0.43,2.4,1.08,4.55,1.98,6.57c1.01,2.26,2.3,4.29,3.83,6.03
				c3.08,3.51,7.04,5.91,11.77,7.15c1.28,0.34,2.45,0.55,3.57,0.66c0.21,0.02,0.42,0.05,0.62,0.07c0.45,0.06,0.97,0.13,1.51,0.13
				c0.27,0,0.53,0.01,0.8,0.01c0.39,0.01,0.78,0.01,1.16,0.01c0.87,0,1.58-0.04,2.24-0.11c0.22-0.03,0.44-0.05,0.66-0.07
				c0.49-0.05,0.98-0.11,1.47-0.18c1.44-0.21,2.91-0.56,4.34-1.03c3.07-1.01,5.8-2.53,8.1-4.51c3.35-2.88,5.69-6.53,6.96-10.84
				c0.05-0.17,0.09-0.35,0.12-0.53l0.02-0.09c0.16-0.83-0.21-1.68-0.94-2.11c-0.42-0.25-0.89-0.37-1.4-0.37
				c-0.08,0-0.16,0-0.24,0.01c-1.65,0-3.28,0-4.9,0c-1.19,0-2.38,0-3.57,0l-0.27,0l-0.2,0c-1.72,0-2.24,1.17-2.49,1.73l-0.1,0.23
				c-0.54,1.17-1.25,2.18-2.13,2.99c-1.69,1.57-3.82,2.47-6.51,2.73c-0.44,0.04-0.89,0.06-1.34,0.06c-0.35,0-0.7-0.01-1.05-0.04
				c-1.29-0.09-2.45-0.33-3.55-0.73c-2.14-0.77-3.76-2.04-4.97-3.86c-0.94-1.42-1.52-3.04-1.8-5.03l20.5,0h6.3l1.26,0h1.26l3.95,0
				c0.24,0,0.47,0,0.71-0.03c1.03-0.1,1.86-0.88,2.02-1.92c0.03-0.19,0.04-0.38,0.04-0.57c-0.01-0.65-0.01-1.29,0-1.94
				c0.01-1.24,0.02-2.52-0.09-3.83c-0.08-0.93-0.16-1.77-0.31-2.64c-0.41-2.35-1.04-4.47-1.93-6.47c-1.06-2.38-2.47-4.52-4.19-6.35
				c-2.91-3.12-6.58-5.3-10.91-6.48c-1.96-0.54-3.95-0.84-5.91-0.91C469.07,416.95,468.48,416.93,467.9,416.93L467.9,416.93z
				 M457.23,437.32c0.06-0.25,0.12-0.5,0.19-0.74c0.42-1.49,1.03-2.75,1.87-3.85c1.34-1.75,3.08-2.91,5.32-3.54
				c0.9-0.25,1.86-0.4,2.84-0.42c0.23-0.01,0.45-0.01,0.68-0.01c0.47,0,0.9,0.02,1.3,0.05c0.96,0.08,1.89,0.28,2.77,0.59
				c1.65,0.59,2.96,1.46,4.03,2.66c0.82,0.92,1.46,1.99,1.9,3.19c0.27,0.72,0.46,1.4,0.59,2.07l-10.79,0L457.23,437.32
				L457.23,437.32z"/>
		</g>
		<g>
			<path class="st3" d="M226.56,419.86c1.15,0,2.29,0,3.44,0c0.73,0,0.74,0.01,0.74,0.76c0,15.2,0,30.4,0,45.61
				c0,0.71,0,0.72-0.7,0.72c-1.08,0-2.16,0-3.24,0c-1.42,0-2.85,0-4.27,0c0,0,0,0,0,0c-0.06,0-0.12,0-0.18,0
				c-0.13,0-0.27-0.01-0.42-0.08c-0.04-0.15-0.11-0.31-0.14-0.48c-0.09-0.71-0.17-1.42-0.26-2.13c-0.12-1-0.24-2-0.36-3
				c-0.01-0.09-0.03-0.21-0.14-0.21c0,0,0,0-0.01,0c-0.08,0-0.18,0.07-0.23,0.14c-0.27,0.36-0.5,0.74-0.78,1.09
				c-1.8,2.29-4.12,3.86-6.88,4.77c-1,0.33-2.02,0.54-3.05,0.7c-0.71,0.11-1.42,0.13-2.14,0.13c-0.27,0-0.55,0-0.82-0.01
				c-2.62-0.03-5.16-0.49-7.59-1.51c-2.79-1.17-5.06-2.98-6.83-5.43c-1.55-2.14-2.51-4.54-3.08-7.1c-0.25-1.12-0.4-2.24-0.51-3.39
				c-0.09-1.05-0.09-2.09-0.09-3.14c0-8.8,0-17.61,0-26.41c0-0.21-0.01-0.43,0.01-0.64c0.02-0.29,0.1-0.36,0.4-0.39
				c0.08-0.01,0.15-0.01,0.23-0.01c0.04,0,0.08,0,0.12,0c0,0,0,0,0,0c1.48,0,2.96,0,4.43,0c1.18,0,2.36,0,3.54,0
				c0.73,0,0.74,0.01,0.74,0.75c0,8.32,0,16.64,0,24.96c0,1.09-0.01,2.17,0.12,3.25c0.23,2,0.7,3.93,1.74,5.68
				c1.31,2.19,3.22,3.6,5.67,4.25c1.15,0.31,2.31,0.47,3.49,0.47c0.49,0,0.97-0.03,1.47-0.08c1.34-0.15,2.63-0.45,3.86-1.01
				c1.87-0.87,3.31-2.21,4.36-3.97c0.92-1.53,1.45-3.2,1.74-4.96c0.23-1.4,0.3-2.81,0.3-4.23c0-8.03,0-16.06,0-24.08
				c0-0.23,0-0.47,0.02-0.7c0.02-0.19,0.11-0.28,0.3-0.3c0.15-0.02,0.31-0.02,0.46-0.02C223.53,419.86,225.05,419.86,226.56,419.86
				 M226.56,417.86l-4.54,0c-0.22,0-0.45,0-0.71,0.04c-1.12,0.14-1.94,0.99-2.04,2.12c-0.03,0.32-0.03,0.61-0.03,0.87
				c0,8.03,0,16.06,0,24.08c0,1.54-0.09,2.78-0.27,3.89c-0.28,1.66-0.76,3.05-1.49,4.26c-0.88,1.46-2.02,2.51-3.49,3.19
				c-0.92,0.43-1.98,0.7-3.24,0.84c-0.41,0.05-0.83,0.07-1.25,0.07c-0.99,0-1.99-0.13-2.97-0.4c-1.98-0.53-3.44-1.63-4.47-3.35
				c-0.77-1.29-1.24-2.84-1.47-4.88c-0.1-0.91-0.1-1.86-0.1-2.86l0-0.16c0-8.32,0-16.64,0-24.96c0-1.85-0.9-2.75-2.74-2.75l-3.54,0
				l-2.79,0l-1.64,0l-0.05,0l-0.07,0c-0.13,0-0.26,0-0.39,0.01c-1.31,0.1-2.16,0.97-2.24,2.27c-0.01,0.2-0.01,0.41-0.01,0.62l0,0.14
				l0,5.43c0,6.99,0,13.99,0,20.98c0,1.1,0,2.19,0.1,3.31c0.12,1.33,0.3,2.52,0.54,3.64c0.67,3.02,1.78,5.59,3.41,7.84
				c1.98,2.75,4.57,4.8,7.68,6.11c2.54,1.06,5.34,1.62,8.34,1.66c0.28,0,0.56,0.01,0.84,0.01c0.67,0,1.54-0.02,2.44-0.16
				c1.32-0.2,2.39-0.45,3.38-0.78c2.25-0.75,4.23-1.88,5.9-3.38c0.04,0.36,0.09,0.73,0.14,1.09c0.04,0.31,0.12,0.56,0.18,0.72
				l0.02,0.06c0.16,0.53,0.55,0.99,1.05,1.24c0.58,0.28,1.11,0.28,1.29,0.28l0.13,0l0.05,0l4.27,0l3.24,0c1.82,0,2.7-0.89,2.7-2.72
				v-45.61c0-1.85-0.89-2.76-2.74-2.76L226.56,417.86L226.56,417.86z"/>
		</g>
		<g>
			<path class="st3" d="M150.46,407.3c0.06,0,0.11,0,0.17,0c0,0,0,0,0,0c1.1,0,2.19,0,3.29,0c1.62,0,3.24,0,4.86,0c0,0,0,0,0,0
				c0.04,0,0.09,0,0.13,0c0.11,0,0.22,0,0.33,0.01c0.26,0.02,0.35,0.11,0.37,0.36c0.01,0.19,0.01,0.39,0.01,0.58
				c0,3.55,0,7.1,0,10.64c0,0.19-0.01,0.39,0.01,0.58c0.01,0.13,0.07,0.25,0.1,0.36c0.15,0.07,0.3,0.08,0.44,0.08
				c0.09,0,0.19-0.01,0.28-0.01c0,0,0,0,0,0c3.14,0,6.29,0,9.43,0c0.17,0,0.35,0,0.52,0.02c0.13,0.01,0.21,0.1,0.22,0.23
				c0.01,0.13,0.02,0.27,0.02,0.41c0,2.48,0,4.96,0,7.45c0,0.65-0.01,0.65-0.65,0.65c-1.71,0-3.43,0-5.14,0c-0.59,0-1.19,0-1.78,0
				c-0.82,0-1.63,0-2.45,0c0,0,0,0,0,0c-0.07,0-0.14,0-0.21,0c-0.12,0-0.25,0-0.37,0.01c-0.28,0.02-0.37,0.11-0.41,0.4
				c-0.01,0.1-0.01,0.19-0.02,0.29c0,0.14,0,0.27,0,0.41c0,7.35,0,14.7,0,22.04c0,0.89,0.06,1.78,0.21,2.66
				c0.09,0.5,0.23,0.98,0.46,1.43c0.43,0.86,1.09,1.45,1.97,1.8c0.8,0.31,1.64,0.47,2.5,0.48c0.93,0,1.86,0.01,2.8,0.01
				c0.45,0,0.9,0,1.35,0c0.29,0,0.58,0,0.87,0c0,0,0,0,0.01,0c0.07,0,0.14,0,0.2,0c0.09,0,0.17,0,0.26,0.01
				c0.2,0.01,0.28,0.09,0.3,0.29c0.01,0.13,0.01,0.27,0.01,0.41c0,2.44,0,4.89,0,7.33c0,0.7,0,0.72-0.65,0.72c-0.02,0-0.03,0-0.05,0
				c-0.07,0-0.14,0-0.21,0c-1.54,0-3.09,0.01-4.63,0.01c-1.26,0-2.52-0.01-3.78-0.04c-2.27-0.06-4.44-0.62-6.4-1.84
				c-1.63-1.01-2.83-2.39-3.67-4.11c-0.6-1.23-0.96-2.53-1.15-3.88c-0.14-1-0.22-2-0.22-3.01c0-8.14,0-16.29,0-24.43
				c0-0.21,0-0.43-0.01-0.64c-0.01-0.19-0.1-0.29-0.28-0.31c-0.19-0.02-0.39-0.02-0.58-0.02c-2.1,0-4.19,0-6.29,0
				c-0.17,0-0.35,0-0.52-0.02c-0.13-0.01-0.21-0.1-0.22-0.23c-0.01-0.13-0.02-0.27-0.02-0.41c0-2.48,0-4.96,0-7.45
				c0-0.64,0.01-0.65,0.65-0.65c0.74,0,1.48,0,2.22,0c0.46,0,0.93,0,1.39,0c0.01,0,0.01,0,0.02,0c0.5,0,0.99-0.1,1.47-0.25
				c0.91-0.3,1.52-0.9,1.84-1.8c0.23-0.65,0.34-1.31,0.34-1.99c0-1.8,0-3.61,0-5.41c0-0.78,0-1.55,0-2.33c0-0.12,0-0.23,0-0.35
				c0.01-0.4,0.08-0.46,0.49-0.48C150.34,407.3,150.4,407.3,150.46,407.3 M150.46,405.3c-0.09,0-0.18,0-0.27,0.01
				c-1.45,0.07-2.34,0.97-2.39,2.41c0,0.11,0,0.22,0,0.33l0,0.09l0,0.78l0,1.54l0,1.28c0,1.38,0,2.75,0,4.13
				c0,0.47-0.08,0.9-0.23,1.34c-0.11,0.32-0.26,0.46-0.57,0.57c-0.31,0.1-0.59,0.15-0.84,0.15c-0.48,0-0.94,0-1.41,0l-1.99,0
				l-0.23,0c-1.75,0-2.64,0.9-2.64,2.65c0,2.4,0,4.8,0,7.2l0,0.25c0,0.18,0,0.39,0.03,0.62c0.12,1.08,0.95,1.9,2.02,2
				c0.26,0.03,0.51,0.03,0.71,0.03l2.9,0l2.26,0l0,3.3c0,6.7,0,13.4,0,20.1c0,1.07,0.08,2.18,0.24,3.29
				c0.23,1.61,0.68,3.12,1.33,4.47c1.01,2.08,2.49,3.75,4.41,4.94c2.17,1.35,4.66,2.07,7.41,2.14c1.11,0.03,2.33,0.04,3.83,0.04
				c0.77,0,1.55,0,2.32-0.01c0.77,0,1.54-0.01,2.31-0.01l0.21,0c1.81,0,2.7-0.92,2.7-2.72l0-7.27l0-0.06l0-0.05
				c0-0.18,0-0.36-0.02-0.53c-0.11-1.17-0.97-2.02-2.15-2.1c-0.13-0.01-0.27-0.01-0.4-0.01l-0.11,0l-0.09,0l-0.87,0l-0.67,0l-0.67,0
				c-0.93,0-1.86,0-2.78-0.01c-0.61,0-1.21-0.12-1.78-0.34c-0.43-0.17-0.71-0.42-0.91-0.83c-0.13-0.26-0.22-0.55-0.28-0.88
				c-0.12-0.71-0.18-1.47-0.18-2.32v-9.45l0-11.7l1.45,0h0.89l0.89,0l5.14,0c1.75,0,2.64-0.89,2.65-2.65c0-2.48,0-4.96,0-7.45
				c0-0.16,0-0.38-0.03-0.63c-0.12-1.08-0.95-1.9-2.03-2c-0.24-0.02-0.47-0.03-0.71-0.03l-3.21,0l-5.06,0l0-4.21l0-5.45l0-0.09
				c0-0.21,0-0.43-0.02-0.64c-0.1-1.23-0.95-2.09-2.19-2.19c-0.17-0.01-0.33-0.02-0.5-0.02l-0.07,0l-0.06,0l-4.86,0l-2.63,0l-0.66,0
				l-0.08,0L150.46,405.3L150.46,405.3z"/>
		</g>
		<g>
			<path class="st3" d="M413.03,407.3c1.16,0,2.32,0,3.48,0c0.81,0,0.82,0.01,0.82,0.8c0,3.61,0,7.21,0,10.82
				c0,0.31-0.04,0.62,0.13,0.91c0.13,0.07,0.27,0.09,0.41,0.09c0.11,0,0.22-0.01,0.33-0.01c0,0,0,0,0,0c3.12,0,6.25,0,9.37,0
				c0.17,0,0.35,0,0.52,0.02c0.13,0.01,0.21,0.09,0.23,0.22c0.02,0.11,0.02,0.23,0.02,0.35c0,2.52,0,5.04,0,7.56
				c0,0.58-0.02,0.6-0.64,0.6c-3.16,0-6.33,0-9.49,0c0,0,0,0,0,0c-0.09,0-0.18-0.01-0.28-0.01c-0.16,0-0.33,0.02-0.5,0.12
				c-0.03,0.12-0.08,0.26-0.09,0.41c-0.02,0.19-0.01,0.39-0.01,0.58c0,7.35,0,14.7,0,22.05c0,0.87,0.03,1.74,0.19,2.6
				c0.09,0.52,0.23,1.02,0.47,1.49c0.43,0.85,1.09,1.45,1.98,1.8c0.8,0.31,1.64,0.47,2.5,0.47c0.93,0.01,1.87,0.01,2.8,0.01
				c0.42,0,0.84,0,1.27,0c0.31,0,0.63,0,0.94,0c0,0,0.01,0,0.01,0c0.05,0,0.1,0,0.15,0c0.1,0,0.2,0,0.3,0.01
				c0.19,0.02,0.27,0.1,0.28,0.3c0.01,0.13,0.01,0.27,0.01,0.41c0,2.44,0,4.89,0,7.33c0,0.15,0,0.31-0.02,0.46
				c-0.01,0.13-0.1,0.21-0.23,0.22c-0.13,0.01-0.26,0.02-0.39,0.02c0,0-0.01,0-0.01,0c-0.09,0-0.17,0-0.26,0
				c-1.54,0-3.08,0.01-4.62,0.01c-1.25,0-2.49-0.01-3.74-0.04c-2.31-0.06-4.52-0.63-6.51-1.89c-1.87-1.19-3.15-2.85-3.95-4.89
				c-0.55-1.4-0.83-2.85-0.94-4.35c-0.08-1.05-0.08-2.09-0.08-3.14c0-7.68,0-15.36,0-23.04c0-0.27,0.02-0.54-0.05-0.82
				c-0.13-0.04-0.23-0.09-0.34-0.1c-0.12-0.01-0.24-0.01-0.36-0.01c-0.07,0-0.15,0-0.22,0c0,0,0,0,0,0c-0.6,0-1.19,0-1.79,0
				c-0.54,0-1.09,0-1.63,0c-0.94,0-1.87,0-2.81,0c-0.72,0-0.72,0-0.72-0.7c0-2.46,0-4.93,0-7.39c0-0.66,0-0.67,0.69-0.67
				c1.2,0,2.41,0,3.61,0c0.55,0,1.08-0.11,1.59-0.3c0.79-0.29,1.34-0.85,1.65-1.62c0.26-0.65,0.38-1.34,0.38-2.04
				c0-1.73,0-3.45,0-5.18c0-0.91,0-1.82,0-2.73c0-0.14,0-0.27,0.01-0.41c0.02-0.19,0.1-0.29,0.28-0.31
				c0.15-0.02,0.31-0.02,0.46-0.02C409.84,407.3,411.44,407.3,413.03,407.3 M413.03,405.3l-4.79,0c-0.19,0-0.42,0-0.69,0.03
				c-1.13,0.13-1.96,0.98-2.06,2.13c-0.01,0.17-0.02,0.33-0.01,0.5l0,0.07l0,1.56l0,1.17l0,2.82l0,2.36c0,0.46-0.08,0.9-0.24,1.31
				c-0.12,0.3-0.27,0.4-0.47,0.48c-0.33,0.12-0.63,0.18-0.91,0.18c-1.2,0-2.41,0-3.61,0c-1.78,0-2.68,0.9-2.69,2.67
				c0,2.46,0,4.93,0,7.39c0,1.81,0.89,2.69,2.72,2.69l2.81,0l0.82,0h0.82l0.76,0l0,7.49l0,14.49c0,1.06,0,2.16,0.08,3.28
				c0.13,1.82,0.48,3.43,1.07,4.94c0.98,2.51,2.57,4.48,4.74,5.85c2.18,1.38,4.71,2.12,7.53,2.2c1.1,0.03,2.31,0.04,3.79,0.04
				c0.77,0,1.55,0,2.32-0.01c0.77,0,1.53-0.01,2.3-0.01l0.25,0c0.22,0,0.42-0.01,0.62-0.03c1.07-0.12,1.89-0.94,2.01-2
				c0.03-0.25,0.03-0.47,0.03-0.68l0-7.33l0-0.07c0-0.17,0-0.33-0.01-0.5c-0.09-1.18-0.95-2.04-2.12-2.14
				c-0.15-0.01-0.31-0.02-0.46-0.02l-0.08,0l-0.07,0l-0.95,0l-0.63,0l-0.63,0c-0.93,0-1.86,0-2.79-0.01c-0.61,0-1.22-0.12-1.79-0.34
				c-0.42-0.16-0.7-0.42-0.91-0.84c-0.12-0.24-0.21-0.54-0.29-0.95c-0.13-0.73-0.15-1.51-0.15-2.25c-0.01-5.84-0.01-11.69,0-17.53
				l0-3.62c1.43,0,2.85,0,4.28,0l4.1,0c2.18,0,2.64-1.41,2.64-2.6c0-2.3,0-4.6,0-6.9l0-0.67c0-0.18,0-0.38-0.03-0.61
				c-0.14-1.06-0.98-1.86-2.04-1.95c-0.23-0.02-0.46-0.02-0.7-0.02l-2.88,0c-1.79,0-3.57,0-5.36,0l0-5.31l0-4.5
				c0-1.91-0.9-2.8-2.82-2.8L413.03,405.3L413.03,405.3z"/>
		</g>
	</g>
</g>
</svg>
