<?xml version="1.0" encoding="utf-8"?>
<!-- Generator: Adobe Illustrator 27.2.0, SVG Export Plug-In . SVG Version: 6.00 Build 0)  -->
<svg version="1.1" id="Layer_1" xmlns="http://www.w3.org/2000/svg" xmlns:xlink="http://www.w3.org/1999/xlink" x="0px" y="0px"
	 viewBox="0 0 200 200" style="enable-background:new 0 0 200 200;" xml:space="preserve">
<style type="text/css">
	.st0{fill:#7B7B7B;stroke:#7B7B7B;stroke-width:2.4938;stroke-linecap:round;stroke-miterlimit:10;}
	.st1{fill:#7B7B7B;}
	.st2{fill:#7B7B7B;stroke:#7B7B7B;stroke-width:3.2011;stroke-miterlimit:10;}
	.st3{fill:none;}
</style>
<g>
	<g>
		<circle class="st0" cx="100.26" cy="23.89" r="15.96"/>
		<g>
			<path class="st1" d="M165.76,192.07c-14.44,0-26.52-10.13-29.52-23.66H63.76c-3,13.53-15.08,23.66-29.52,23.66
				c-17.4,0-31.38-14.71-30.16-32.38c1.02-15.02,13.28-27.15,28.31-28.05c13.37-0.8,24.99,7.09,29.77,18.55
				c0.12,0.27,0.17,0.55,0.17,0.81c0,1.08-0.85,2.05-2.03,2.05c-1.12,0-2.15-0.66-2.6-1.69c-4-8.97-13-15.21-23.45-15.21
				c-14.75,0-26.6,12.46-25.62,27.41c0.84,12.69,11.12,23.01,23.81,23.88c12.99,0.89,24.1-7.9,26.84-19.87l0,0
				c0-1.96,1.59-3.55,3.55-3.55h74.36c1.96,0,3.55,1.59,3.55,3.55l0,0c2.61,11.41,12.83,19.93,25.03,19.93
				c15.14,0,27.24-13.12,25.51-28.61c-1.32-11.87-10.94-21.39-22.82-22.6c-11.5-1.17-21.68,5.26-26.07,14.89
				c-0.51,1.13-1.63,1.87-2.87,1.87c-1.35,0-2.29-1.36-1.79-2.59c4.7-11.6,16.42-19.62,29.88-18.81
				c15.03,0.9,27.29,13.02,28.31,28.05C197.15,177.36,183.17,192.07,165.76,192.07z"/>
		</g>
		<path class="st2" d="M58.22,112.23l9.45,9.45c3.88,3.88,9.93,4.6,14.61,1.72l12.99-7.97c3.88-2.38,8.79-2.33,12.62,0.12l9.9,6.35
			c4.7,3.01,10.86,2.35,14.81-1.6l9.52-9.52c4.45-4.45,4.66-11.61,0.46-16.3l-34.72-38.91c-4.89-5.48-13.53-5.25-18.12,0.48
			L57.35,96.4C53.56,101.12,53.94,107.94,58.22,112.23z"/>
		<circle class="st3" cx="34.34" cy="162.6" r="14.63"/>
		<circle class="st3" cx="166.04" cy="161.62" r="14.63"/>
	</g>
</g>
</svg>
