<?xml version="1.0" encoding="UTF-8"?>
<svg id="Layer_1" data-name="Layer 1" xmlns="http://www.w3.org/2000/svg" viewBox="0 0 980 980">
  <defs>
    <style>
      .cls-1 {
        stroke-width: 3.2px;
      }

      .cls-1, .cls-2, .cls-3 {
        stroke: #7b7b7b;
        stroke-miterlimit: 10;
      }

      .cls-2 {
        stroke-width: 2.49px;
      }

      .cls-2, .cls-3 {
        stroke-linecap: round;
      }

      .cls-3 {
        fill: none;
        stroke-width: 4px;
      }
    </style>
  </defs>
  <g>
    <g>
      <g>
        <path d="m500.52,797.43c-.35,0-.71-.01-1.06-.03-.96-.05-1.77-.86-1.83-1.84-.02-.36-.03-.71-.03-1.06v-67.66c0-.42.01-.84.03-1.26.05-.97.84-1.78,1.81-1.85.25-.02.51-.03.76-.03h11.68c1.04,0,1.85.59,2.22,1.63.14.41.31.8.47,1.2l3.08,7.67c1.65,4.1,3.29,8.2,4.94,12.3l8.45,21.12c1.67,4.18,3.35,8.36,5.02,12.53.37-.92,11.94-29.8,11.94-29.8,0,0,3.96-9.91,4.91-12.27,1.2-2.98,4.89-12.17,4.89-12.17.11-.28.23-.57.35-.85.38-.85,1.14-1.35,2.04-1.35h.65s10.42,0,10.42,0c.28,0,.57,0,.85.02,1.05.07,1.85.86,1.95,1.93.02.21.03.44.03.66,0,.25,0,67.67,0,67.67,0,.46,0,.86-.01,1.25,0,.26-.06.54-.16.84-.23.69-.81,1.19-1.51,1.29-.37.05-.68.08-.97.08h-8.57c-.13,0-.26,0-.39,0-1.32-.05-2.1-.84-2.14-2.18,0-.19,0-.38,0-.57v-34.61c0-.76.02-1.58.11-2.43.04-.41.05-.84.05-1.3v-.53c.03-.83.04-1.65.05-2.48v-.19c0-.28,0-.59.03-.91l-11.63,28.36-6.11,14.94c-.07.16-.14.32-.21.47l-.04.09c-.39.83-1.12,1.31-2,1.32,0,0-.61.01-.79.01h-8.15c-1.57-.02-2.12-.41-2.71-1.89l-11.56-29.1s-5.73-14.47-6.25-15.76v.33c0,.12,0,.25.02.37.15.99.15,1.95.14,2.87v40.23c0,.29,0,.57,0,.86-.04,1.26-.84,2.04-2.13,2.09-.19,0-.39,0-.58,0h-4.14s-3.91,0-3.91,0Z"/>
        <path d="m511.88,725.19c.42,0,.67.23.81.64.21.58.45,1.14.68,1.71,2.61,6.5,5.22,13,7.83,19.5,2.82,7.04,5.63,14.08,8.45,21.12,1.89,4.73,3.79,9.45,5.69,14.18.15.37.32.72.5,1.08.04.09.15.13.24.13.09,0,.17-.03.21-.11.15-.29.3-.58.42-.88.62-1.54,1.24-3.08,1.86-4.62,1.65-4.12,3.3-8.25,4.95-12.37,1.96-4.89,3.92-9.79,5.88-14.68,1.64-4.09,3.27-8.18,4.91-12.27,1.63-4.06,3.26-8.11,4.89-12.16.11-.27.22-.54.33-.8.13-.29.34-.46.67-.46h.01c.21,0,.43,0,.64,0,1.59,0,3.19,0,4.78,0,1.88,0,3.75,0,5.63,0,.25,0,.51,0,.76.02.31.02.52.23.55.57.02.18.02.36.03.54,0,.33,0,.65,0,.98,0,22.23,0,44.45,0,66.68,0,.4,0,.8-.01,1.19,0,.14-.04.29-.09.42-.05.14-.16.26-.31.28-.25.04-.5.06-.75.06-1.6,0-3.2,0-4.81,0-1.26,0-2.51,0-3.77,0-.11,0-.22,0-.33,0-.54-.02-.69-.18-.71-.73,0-.22,0-.43,0-.65,0-11.49,0-22.99,0-34.48,0-.76.01-1.52.09-2.27.07-.65.05-1.3.07-1.95.02-.83.03-1.66.05-2.49,0-.58,0-1.16.12-1.73.02-.11.03-.22.03-.32.01-1.48.2-2.95.29-4.43.02-.32.07-.65.11-.97.09-.61.14-1.22.11-1.83,0-.04-.1-.08-.16-.11,0,0-.01,0-.02,0-.03,0-.06.01-.08.03-.05.05-.11.09-.14.15-.1.19-.18.39-.27.59-.91,2.2-1.81,4.41-2.72,6.61-1.45,3.54-2.91,7.08-4.36,10.63-1,2.44-2,4.88-3,7.32-1.47,3.58-2.93,7.15-4.4,10.73-.99,2.41-1.97,4.81-2.95,7.22-1.05,2.57-2.1,5.15-3.16,7.72-.07.17-.15.33-.22.49-.13.29-.35.45-.67.46-.25,0-.51.01-.76.01-1.45,0-2.89,0-4.34,0-1.16,0-2.31,0-3.47,0-.05,0-.1,0-.15,0-.06,0-.12,0-.18,0-.94-.01-.97-.03-1.33-.94-1.66-4.16-3.31-8.32-4.96-12.49-2.2-5.54-4.4-11.08-6.6-16.61-1.57-3.96-3.14-7.92-4.71-11.89-1.37-3.46-2.74-6.92-4.12-10.37-.09-.23-.22-.45-.34-.67-.03-.05-.12-.07-.18-.09,0,0-.02,0-.03,0-.08,0-.18.11-.19.2,0,.11-.03.22-.03.32.02.29.02.58.08.86.09.46.1.93.12,1.4.04.61.1,1.22.15,1.84.02.32.04.65.05.97.02.79.04,1.59.06,2.38,0,.25,0,.51.03.76.15,1.01.13,2.02.13,3.03,0,9.22,0,18.43,0,27.65,0,4.01,0,8.02,0,12.04,0,.33,0,.65,0,.98-.02.46-.19.62-.68.64-.19,0-.38,0-.58,0-.06,0-.12,0-.18,0-1.26,0-2.52,0-3.78,0-1.34,0-2.69,0-4.03,0-.32,0-.65-.01-.97-.03-.21-.01-.41-.22-.42-.43-.02-.32-.03-.65-.03-.97,0-3,0-6,0-9v-24.94c0-11.24,0-22.48,0-33.72,0-.4.01-.79.03-1.19.01-.21.21-.41.42-.43.22-.02.43-.03.65-.03,2.21,0,4.41,0,6.62,0,1.55,0,3.11,0,4.66,0,.08,0,.15,0,.23,0,.03,0,.06,0,.1,0,.02,0,.05,0,.07,0m0-3c-.06,0-.13,0-.19,0h-.21s-1.55,0-1.55,0h-3.11s-6.62,0-6.62,0c-.29,0-.58.01-.88.03-1.71.13-3.11,1.57-3.19,3.28-.02.44-.03.89-.03,1.33v28.79s0,4.93,0,4.93v26.91c0,2.34,0,4.69,0,7.03,0,.38.01.76.03,1.14.1,1.72,1.52,3.15,3.24,3.25.41.02.79.04,1.15.04h4.03s3.12,0,3.12,0h.66s.09,0,.09,0h.09c.23,0,.45,0,.68,0,2.07-.07,3.51-1.49,3.58-3.54.01-.3.01-.61,0-.91v-.16s0-12.04,0-12.04v-3.93c0-6.46,0-12.93,0-19.39l.4,1c.93,2.35,1.86,4.69,2.79,7.04,1.76,4.42,3.51,8.84,5.27,13.27l1.33,3.35.58,1.46c1.46,3.68,2.92,7.35,4.38,11.03.81,2.03,1.91,2.8,4.08,2.83h.22s.08,0,.08,0h.07s1.74,0,1.74,0h6.08c.2,0,.39,0,.59,0h.22c1.46-.03,2.71-.85,3.34-2.19l.03-.07c.09-.18.17-.37.25-.56l1.91-4.68,1.25-3.05.12-.3c.94-2.3,1.89-4.61,2.83-6.91l2.2-5.36,2.2-5.36,1.47-3.59,1.53-3.73c.37-.9.74-1.79,1.1-2.69v34.13s0,.12,0,.12c0,.21,0,.41,0,.62.06,2.13,1.47,3.56,3.6,3.64.15,0,.29,0,.44,0h1.48s2.28,0,2.28,0c1.6,0,3.21,0,4.81,0,.37,0,.76-.03,1.19-.1,1.26-.19,2.3-1.07,2.71-2.3.15-.44.22-.85.24-1.26.01-.41.02-.83.02-1.24v-55.88s0-10.86,0-10.86v-.24c0-.26,0-.52,0-.78,0-.26-.01-.51-.04-.77-.16-1.8-1.57-3.18-3.35-3.29-.31-.02-.63-.02-.94-.02h-5.63s-4.78,0-4.78,0c-.12,0-.24,0-.37,0h-.27c-1.5,0-2.81.86-3.42,2.25-.13.29-.25.59-.37.88l-1.3,3.22c-1.2,2.99-2.4,5.97-3.6,8.96-.93,2.31-1.85,4.63-2.78,6.94l-2.13,5.33-3.4,8.48-2.48,6.2-2.58,6.44-2.08,5.21c-1.21-3.02-2.42-6.04-3.63-9.06l-3.48-8.71c-1.65-4.14-3.31-8.28-4.97-12.42-1.76-4.4-3.53-8.81-5.3-13.21l-2.53-6.3-.2-.48c-.15-.37-.31-.74-.44-1.12-.58-1.62-1.97-2.63-3.64-2.63h0Z"/>
      </g>
      <g>
        <path d="m740.74,797.43c-.45,0-.9,0-1.35-.02-1.12-.04-1.93-.87-1.98-2-.01-.29-.01-.58-.01-.86v-67.71c0-.42.01-.84.03-1.25.04-.94.82-1.75,1.76-1.86.16-.02.32-.03.47-.03h44.82c.39,0,.77,0,1.16.02,1.02.05,1.83.84,1.9,1.88.02.29.03.58.03.87v.77c0,2.09,0,4.19,0,6.28,0,2.07-.7,2.77-2.77,2.78h-33.09c-.13,0-.27,0-.4,0,0,.09,0,17.71,0,17.75,0,0,25.28,0,25.28,0,.35,0,.7.01,1.05.03.95.05,1.76.85,1.83,1.82.02.25.03.51.03.76,0,2.46,0,4.92,0,7.37,0,.26-.01.52-.04.77-.08.96-.9,1.74-1.87,1.79-.38.02-.76.02-1.15.03,0,0-25.12,0-25.14,0,0,.03,0,18.09,0,18.17h34.64c.46,0,.92.02,1.37.04,1.03.05,1.83.85,1.9,1.89.02.22.02.43.02.65v7.48c0,.26-.01.51-.03.77-.08.93-.85,1.7-1.79,1.78-.18.02-.37.03-.55.03h-.67s-45.45,0-45.45,0Z"/>
        <path d="m740.15,725.19c.09,0,.18,0,.28,0,4.77,0,9.54,0,14.31,0,9.91,0,19.82,0,29.73,0,.36,0,.72,0,1.08.02.26.01.46.22.48.5.02.25.03.5.03.76,0,2.35,0,4.7,0,7.05,0,1.25-.03,1.28-1.28,1.28-.89,0-1.77,0-2.66,0-1.21,0-2.42,0-3.63,0h-8.46c-6.11,0-12.22,0-18.34,0-.43,0-.87.01-1.3.04-.31.02-.55.26-.56.56-.03.4-.04.79-.04,1.19,0,4.63,0,9.25,0,13.88,0,1.16,0,2.31,0,3.47,0,.29,0,.58.02.87.03.53.21.72.73.74.26,0,.53.01.79.01.1,0,.2,0,.29,0,2.74,0,5.48,0,8.21,0h5.02c1.58,0,3.16,0,4.74,0,2.33,0,4.65,0,6.98,0,.33,0,.65,0,.97.03.21.01.4.22.41.44.02.22.03.43.03.65,0,2.46,0,4.91,0,7.37,0,.22-.01.43-.03.65-.02.2-.22.4-.44.41-.36.02-.72.02-1.08.02-3.29,0-6.57,0-9.86,0-1.96,0-3.91,0-5.87,0-1.42,0-2.84,0-4.26,0-1.69,0-3.38,0-5.07,0-.36,0-.72.01-1.08.03-.21.01-.4.21-.44.42-.02.14-.05.29-.05.43-.01.25,0,.51,0,.76,0,5.93,0,11.85,0,17.78,0,.33,0,.65.02.98.03.48.26.7.76.75.18.02.36.02.54.02.2,0,.4,0,.6,0,.16,0,.33,0,.49,0h8.22c8.5,0,17.01,0,25.51,0,.43,0,.87.01,1.3.03.27.01.46.22.48.5.01.18.02.36.02.54,0,2.49,0,4.99,0,7.48,0,.22-.01.43-.03.65-.02.21-.22.39-.44.41-.14.01-.29.02-.43.03-.2,0-.4,0-.61,0-.12,0-.25,0-.37,0-4.66,0-9.33,0-13.99,0-10.38,0-20.76,0-31.14,0-.43,0-.87,0-1.3-.02-.33-.01-.52-.22-.53-.56-.01-.29-.01-.58-.01-.87,0-1.7,0-3.4,0-5.1,0-9.61,0-19.23,0-28.84,0-11.24,0-22.48,0-33.72,0-.4,0-.79.03-1.19,0-.21.22-.41.42-.43.11-.01.22-.02.32-.02.16,0,.32,0,.48,0m0-3c-.18,0-.35,0-.53,0-.2,0-.39.02-.59.04-1.7.18-3.03,1.59-3.11,3.28-.02.44-.03.88-.03,1.32v28.35s0,5.37,0,5.37v14.42s0,14.42,0,14.42v1.09s0,4.01,0,4.01v.1c0,.3,0,.59.01.89.08,1.92,1.52,3.37,3.42,3.44.47.02.94.02,1.41.02h31.14s9.33,0,9.33,0h4.84s.19,0,.19,0c.22,0,.43,0,.65,0,.23,0,.45-.02.68-.04,1.66-.16,3.01-1.51,3.15-3.16.02-.31.04-.6.04-.89,0-2.5,0-4.99,0-7.48,0-.25,0-.5-.03-.75-.13-1.78-1.56-3.19-3.32-3.28-.48-.02-.97-.04-1.45-.04h-25.51s-2.22,0-2.22,0h-5.41v-15.17s3.65,0,3.65,0h2.13s2.13,0,2.13,0h5.87s9.86,0,9.86,0c.41,0,.81,0,1.22-.03,1.74-.08,3.16-1.44,3.3-3.16.03-.32.04-.61.04-.89,0-2.46,0-4.92,0-7.38,0-.29-.01-.58-.03-.87-.13-1.73-1.52-3.11-3.24-3.21-.38-.02-.76-.03-1.14-.03h-6.98s-2.37,0-2.37,0h-2.37s-2.51,0-2.51,0h-9.55s0-1.18,0-1.18v-.91s0-2.82,0-2.82c0-3.28,0-6.56,0-9.84h17.24s3.59,0,3.59,0h6.69s1.82,0,1.82,0c.89,0,1.78,0,2.67,0,2.91,0,4.26-1.36,4.27-4.27,0-2.13,0-4.26,0-6.39v-.66c0-.32-.01-.65-.04-.98-.13-1.78-1.56-3.19-3.32-3.27-.41-.02-.82-.03-1.23-.03h-29.74s-9.54,0-9.54,0h-4.9s-.14,0-.14,0h0Z"/>
      </g>
      <g>
        <path d="m254.2,797.43h-7.76c-1.49-.02-2.08-.45-2.62-1.88l-5.16-13.8s-.2-.5-.23-.58h-.37s-27.34,0-27.34,0h-.43s-2.57,6.83-2.57,6.83l-2.85,7.61c-.09.24-.17.45-.28.66-.35.68-1.01,1.11-1.76,1.16-.24.02-.49.02-.74.02h-9.01c-.23,0-.57,0-.93-.07-.84-.16-1.48-1.01-1.39-1.85.03-.33.11-.67.24-1,.33-.88.67-1.76,1-2.63l4.07-10.63s2.26-5.87,2.76-7.18l4.41-11.54c.64-1.66,3.46-9,3.46-9l10.4-27.11c.19-.49.38-.99.59-1.47.31-.72,1-1.2,1.79-1.24.25-.02.49-.02.74-.02h9c.25,0,.51,0,.76.02.78.06,1.45.51,1.77,1.22.19.42.37.85.53,1.29,1.29,3.37,2.58,6.75,3.87,10.12l4.21,11.03s4.92,12.84,6.01,15.68l5.94,15.59c1.48,3.87,5.92,15.48,5.92,15.48.07.17.1.25.13.34.17.47.48,1.35-.09,2.15-.58.82-1.57.82-1.95.82,0,0-1.46,0-2.17,0Zm-20.14-27.98c-.08-.21-3.14-8.41-3.14-8.41l-6.46-17.37-.85,2.26-3.59,9.52s-4.96,13.21-5.26,14h19.3Z"/>
        <path d="m224.68,725.19c1.53,0,3.05,0,4.58,0,.22,0,.43,0,.65.02.23.02.42.14.51.35.18.39.34.8.5,1.2,1.29,3.37,2.58,6.75,3.87,10.12,1.4,3.68,2.8,7.36,4.21,11.03,2,5.23,4.01,10.45,6.01,15.68,1.98,5.2,3.96,10.39,5.94,15.59,1.97,5.16,3.95,10.32,5.92,15.48.04.1.08.2.12.3.25.71.29.97-.62.97-.01,0-.02,0-.03,0-.68,0-1.36,0-2.05,0-.98,0-1.96,0-2.94,0h0c-1.48,0-2.97,0-4.45,0-.07,0-.14,0-.21,0-.07,0-.15,0-.22,0-.86-.02-.92-.05-1.24-.91-.78-2.06-1.54-4.13-2.32-6.19-.95-2.54-1.9-5.07-2.85-7.61-.11-.3-.24-.6-.35-.91-.16-.46-.48-.65-.93-.65-.02,0-.05,0-.07,0-.06,0-.12,0-.18,0-.16,0-.31,0-.47,0-4.08,0-8.17,0-12.25,0-5.03,0-10.06,0-15.09,0-.29,0-.58,0-.87.01-.41,0-.67.22-.82.59-.08.2-.16.4-.23.61-.83,2.2-1.66,4.39-2.48,6.59-.95,2.54-1.9,5.07-2.85,7.61-.06.17-.13.34-.21.5-.11.21-.28.33-.52.34-.22.01-.43.02-.65.02-1.46,0-2.92,0-4.38,0-1.54,0-3.08,0-4.62,0-.22,0-.44,0-.65-.04-.08-.01-.19-.15-.18-.22.02-.21.08-.42.15-.62.45-1.18.9-2.36,1.35-3.54,1.24-3.24,2.48-6.48,3.72-9.71.92-2.39,1.85-4.78,2.76-7.18,1.47-3.84,2.94-7.69,4.41-11.54,1.15-3,2.31-6,3.46-9,1.23-3.2,2.45-6.41,3.68-9.61,1.12-2.93,2.25-5.86,3.38-8.8,1.11-2.9,2.22-5.8,3.34-8.7.18-.47.36-.94.57-1.41.09-.21.28-.34.51-.35.22-.01.43-.02.65-.02,1.48,0,2.95,0,4.43,0m-4.84,45.76c1.45,0,2.91,0,4.36,0h5.45c1.55,0,3.1,0,4.65,0,.12,0,.24,0,.35,0,.17,0,.34,0,.51,0,.14,0,.29-.01.43-.03.24-.02.41-.23.36-.44-.05-.21-.09-.42-.16-.63-.19-.54-.39-1.09-.59-1.63-.96-2.57-1.92-5.14-2.88-7.71-1.34-3.58-2.67-7.17-4-10.76-1.06-2.84-2.11-5.68-3.17-8.52-.11-.3-.23-.61-.35-.91-.06-.14-.15-.24-.29-.3-.02,0-.03,0-.05,0-.11,0-.26.12-.34.31-.13.3-.24.6-.36.91-.52,1.39-1.03,2.77-1.55,4.16-1.2,3.17-2.4,6.35-3.59,9.52-1.27,3.38-2.54,6.76-3.8,10.14-.57,1.52-1.15,3.04-1.71,4.56-.11.3-.18.62-.27.93-.03.1.12.33.23.33.36.03.72.07,1.08.07,1.9,0,3.8,0,5.7,0m4.84-48.76h-4.43c-.28,0-.56,0-.84.02-1.35.09-2.53.91-3.07,2.14-.22.51-.42,1.02-.62,1.54l-1.79,4.67-1.55,4.04-1.59,4.13-1.79,4.67-1.64,4.28c-.68,1.78-1.36,3.55-2.04,5.33-.53,1.37-1.05,2.74-1.58,4.11-.63,1.63-1.26,3.26-1.88,4.89-.76,1.99-1.52,3.98-2.28,5.97-.71,1.86-1.42,3.71-2.13,5.57-.49,1.29-.99,2.57-1.49,3.86-.43,1.1-.85,2.21-1.28,3.31-.84,2.2-1.69,4.4-2.53,6.6l-1.19,3.12-.38.98c-.33.86-.66,1.71-.98,2.57-.17.45-.28.91-.33,1.37-.17,1.61,1,3.17,2.59,3.48.5.1.95.1,1.22.1h4.63s4.38,0,4.38,0c.28,0,.55,0,.83-.02,1.29-.08,2.42-.81,3.01-1.97.16-.31.26-.59.34-.79l1.14-3.05c.57-1.53,1.14-3.05,1.71-4.57.59-1.58,1.19-3.16,1.78-4.74l.42-1.12h14.48s11.59,0,11.59,0l2.7,7.22.75,2.01c.52,1.39,1.04,2.79,1.56,4.18.75,1.99,1.91,2.81,4,2.85h.28s.11,0,.11,0h.1s4.45,0,4.45,0h3c.66,0,1.31,0,1.97,0h0s.04,0,.04,0c1.42,0,2.49-.49,3.17-1.45,1.01-1.43.48-2.95.27-3.52-.04-.11-.08-.21-.12-.32l-.02-.05-1.72-4.48c-1.4-3.66-2.81-7.33-4.21-11-.96-2.5-1.91-5-2.86-7.5-1.03-2.7-2.05-5.39-3.08-8.09-1.08-2.81-2.15-5.63-3.23-8.44-.93-2.41-1.85-4.83-2.77-7.24-.81-2.12-1.62-4.23-2.42-6.35l-1.78-4.68c-1.29-3.38-2.58-6.75-3.87-10.12-.2-.52-.38-.96-.57-1.37-.55-1.2-1.71-2-3.03-2.1-.29-.02-.57-.03-.86-.03h-4.58Zm-7.75,45.75c.05-.12.09-.24.14-.36l.56-1.48,1.36-3.61c.81-2.17,1.63-4.35,2.45-6.52.66-1.75,1.32-3.51,1.98-5.26l1.04-2.77.56,1.49.51,1.36,1.28,3.43,2.73,7.33,1.66,4.44.73,1.95h-9.88s-2.18,0-2.18,0c-.97,0-1.94,0-2.91,0h0Z"/>
      </g>
      <g>
        <path d="m645.79,797.43c-1.53,0-2.2-.47-2.74-1.92-1.23-3.32-2.48-6.64-3.72-9.96l-1.06-2.82c-.2-.52-.39-1.04-.6-1.56-.14,0-27.75,0-27.75,0-.13,0-.27,0-.4,0,0,.02-1.19,3.17-1.77,4.72l-1.12,3c-.8,2.15-1.6,4.3-2.41,6.44l-.04.12c-.53,1.4-1.02,1.98-2.73,1.98h-8.94c-.24,0-.47,0-.71-.01-.85-.04-1.29-.5-1.48-.77-.19-.28-.48-.86-.21-1.7.1-.3.2-.6.31-.9.28-.74,1.05-2.74,1.05-2.74l1.82-4.73c1.52-3.95,3.04-7.9,4.56-11.85,1.16-3.02,6.42-16.8,6.42-16.8.81-2.1,1.62-4.2,2.43-6.3l2.13-5.53,4.33-11.33c1.04-2.7,2.08-5.4,3.12-8.1l.39-1c.57-1.46,1.08-1.98,2.81-1.98h9.08c1.56,0,2.22.46,2.75,1.88.41,1.09.83,2.19,1.25,3.28l.8,2.08,3.16,8.3,9.8,25.6,6.26,16.4,4.98,13.06c.1.26.19.52.27.79.16.48.07,1.03-.23,1.5-.3.46-.75.75-1.26.8h-.11c-.26.04-.52.06-.78.07h-2.18s-7.48,0-7.48,0Zm-12.48-27.99l-4.31-11.53-5.3-14.25c-1.03,2.73-2.06,5.46-3.08,8.19l-3.42,9.12-3.18,8.46h19.3Z"/>
        <path d="m619.46,725.19s.06,0,.1,0c1.42,0,2.85,0,4.27,0,1.58,0,3.15,0,4.73,0h.05c.85,0,.97.03,1.3.91.68,1.79,1.37,3.57,2.05,5.36,1.06,2.77,2.11,5.53,3.16,8.3,1.25,3.27,2.51,6.54,3.76,9.81,2.01,5.26,4.03,10.52,6.04,15.78,2.09,5.46,4.18,10.93,6.26,16.4,1.66,4.35,3.32,8.71,4.98,13.06.09.24.17.48.25.72.03.1-.1.33-.21.34-.25.03-.5.06-.75.06-.8,0-1.6,0-2.4,0s-1.58,0-2.37,0h0c-.94,0-1.88,0-2.82,0-.69,0-1.38,0-2.07,0-.85,0-.99-.03-1.33-.94-1.59-4.26-3.18-8.52-4.78-12.78-.2-.54-.41-1.08-.62-1.62-.08-.2-.16-.4-.27-.59-.09-.16-.25-.26-.44-.29-.11-.02-.22-.03-.32-.03-.25,0-.51,0-.76,0-3.52,0-7.05,0-10.57,0-5.59,0-11.18,0-16.76,0-.33,0-.65.01-.98.03-.28.02-.47.17-.59.41-.1.19-.18.39-.26.6-.59,1.55-1.17,3.11-1.75,4.66-1.18,3.15-2.34,6.3-3.53,9.44-.41,1.09-.39,1.13-1.38,1.13-.08,0-.16,0-.25,0h0c-1.17,0-2.33,0-3.5,0-1.73,0-3.45,0-5.18,0-.22,0-.43,0-.65-.01-.32-.01-.43-.19-.32-.52.09-.27.18-.55.28-.82.35-.91.7-1.82,1.05-2.73,2.13-5.53,4.26-11.05,6.38-16.58,2.15-5.6,4.28-11.2,6.42-16.8,1.51-3.95,3.04-7.89,4.55-11.83,1.45-3.78,2.89-7.56,4.33-11.33,1.16-3.03,2.33-6.07,3.5-9.1.38-.98.4-1.02,1.39-1.02m-.31,45.76c1.5,0,3.01,0,4.51,0s3.03,0,4.54,0c1.88,0,3.77,0,5.65,0,.36,0,.72-.02,1.08-.05.17-.01.3-.22.28-.4-.04-.44-.22-.84-.38-1.24-1.47-3.96-2.96-7.91-4.43-11.87-1.88-5.04-3.75-10.08-5.63-15.12-.23-.61-.45-1.22-.68-1.82-.04-.1-.09-.19-.14-.29-.05-.09-.15-.14-.25-.14-.08,0-.16.03-.2.1-.11.19-.21.38-.29.58-1.34,3.55-2.67,7.09-4,10.64-1.14,3.04-2.28,6.08-3.42,9.13-1.16,3.07-2.32,6.15-3.47,9.22-.08.2-.14.41-.2.62-.11.39.05.61.49.63.36.02.72.02,1.08.02,1.82,0,3.64,0,5.46,0m.31-48.76c-2.55,0-3.49,1.13-4.19,2.94-1.17,3.03-2.34,6.07-3.51,9.11-.68,1.78-1.36,3.57-2.05,5.35-.76,1.99-1.52,3.99-2.29,5.98-.71,1.85-1.42,3.7-2.14,5.55-.81,2.09-1.61,4.18-2.42,6.28-1.03,2.68-2.05,5.36-3.07,8.04-1.12,2.92-2.23,5.84-3.35,8.76-1.44,3.77-2.89,7.53-4.34,11.3l-2.03,5.28-.05.12c-.34.87-.67,1.75-1,2.62-.12.32-.24.65-.34.98-.34,1.06-.19,2.16.41,3.02.6.85,1.56,1.36,2.65,1.41.26.01.52.01.77.01h5.18s3.5,0,3.5,0h.13s.12,0,.12,0c2.52,0,3.45-1.13,4.14-2.95l.04-.12c.81-2.14,1.61-4.28,2.41-6.43l1.13-3.02c.47-1.25.94-2.5,1.41-3.75h16.12s9.95,0,9.95,0c.07.2.15.39.22.59l1.06,2.84c1.24,3.31,2.48,6.63,3.71,9.94.76,2.03,1.99,2.9,4.14,2.9h2.07s1.41,0,1.41,0h1.95s1.83,0,1.83,0c.8,0,1.61,0,2.41,0,.36,0,.68-.03.94-.06h.11c.95-.11,1.82-.64,2.36-1.48.55-.85.7-1.87.4-2.79-.1-.31-.19-.58-.29-.86-1.66-4.35-3.32-8.71-4.98-13.06-2.09-5.47-4.17-10.93-6.26-16.4-1.66-4.33-3.32-8.67-4.98-13l-1.07-2.78-1.52-3.96c-.75-1.95-1.49-3.9-2.24-5.85-.58-1.51-1.15-3.02-1.73-4.53l-1.44-3.77c-.26-.69-.53-1.39-.8-2.08-.42-1.09-.84-2.18-1.25-3.27-.76-2.02-1.95-2.85-4.11-2.85h-4.78c-1.42,0-2.85,0-4.27,0h-.1Zm-3.28,45.76l.52-1.38c.63-1.68,1.27-3.36,1.9-5.04.6-1.6,1.2-3.21,1.8-4.81l1.62-4.31c.56-1.48,1.11-2.96,1.67-4.44l.03.07c1.29,3.47,2.59,6.95,3.88,10.42.7,1.88,1.4,3.76,2.11,5.64.48,1.29.96,2.58,1.45,3.87-.98,0-1.96,0-2.94,0h-2.27s-2.27,0-2.27,0h-2.26s-2.26,0-2.26,0h-2.97Z"/>
      </g>
      <g>
        <path d="m325.65,797.43c-.28,0-.56,0-.84-.02-.79-.05-1.46-.51-1.79-1.25-.1-.23-.19-.45-.28-.68-.79-2.1-1.58-4.19-2.36-6.29,0,0-2.99-7.99-3-8.02-.15,0-.3,0-.45,0h-27.11c-.2,0-.4,0-.6,0-.05.12-.1.24-.15.37l-4.21,11.26c-.35.95-.72,1.9-1.08,2.85-.08.21-.17.42-.27.63-.32.64-.92,1.06-1.62,1.12-.26.03-.53.04-.79.04h-9.11c-.22,0-.44-.02-.66-.05h-.13c-.48-.07-.92-.34-1.21-.76-.29-.43-.38-.95-.24-1.42l.04-.13c.06-.2.12-.4.19-.6.64-1.69,3.07-8.05,3.07-8.05,1.11-2.92,2.23-5.83,3.35-8.75l4.59-11.93,4.3-11.23,3.82-9.91c1.08-2.82,4.41-11.53,4.41-11.53l2.86-7.49c.1-.26.22-.52.36-.77.36-.66,1-1.06,1.74-1.11.24-.02.49-.02.74-.02h9c.25,0,.5,0,.75.02.75.05,1.38.48,1.74,1.17.09.18.17.38.24.57l5.44,14.25,5.28,13.75,4.21,11.03,6,15.68c1.16,3.03,4.89,12.86,4.89,12.86.22.58.44,1.16.65,1.74.06.15.09.31.12.47.11.54-.01,1.05-.32,1.46-.31.41-.78.67-1.27.71-.31.02-.59.04-.86.04h-2.05s-7.39,0-7.39,0Zm-12.65-27.99c-.2-.53-4.79-12.89-4.79-12.89l-4.81-12.88-9.12,24.24c-.19.51-.38,1.02-.56,1.53h9.69s9.59,0,9.59,0Z"/>
        <path d="m303.65,725.19c1.52,0,3.05,0,4.57,0,.22,0,.43,0,.65.02.24.02.4.16.51.36.08.16.14.33.21.5,1.8,4.72,3.6,9.45,5.41,14.17,1.75,4.59,3.52,9.17,5.28,13.75,1.41,3.68,2.8,7.35,4.21,11.03,2,5.23,4,10.45,6,15.68,1.64,4.28,3.26,8.57,4.89,12.85.22.57.43,1.15.65,1.72.04.1.05.21.07.31.02.12-.11.3-.25.31-.25.02-.5.04-.76.04-.8,0-1.61,0-2.41,0-.75,0-1.51,0-2.26,0h-.1c-.79,0-1.58,0-2.36,0s-1.53,0-2.3,0c-.25,0-.51,0-.76-.02-.24-.01-.4-.15-.5-.36-.09-.2-.17-.4-.24-.6-.79-2.09-1.58-4.19-2.36-6.28-.99-2.64-1.97-5.27-2.96-7.91-.08-.2-.16-.4-.25-.6-.13-.29-.34-.46-.67-.47-.32-.01-.65-.02-.98-.02-1.02,0-2.05,0-3.07,0-.96,0-1.93,0-2.89,0-2.56,0-5.13,0-7.69,0-4.49,0-8.97,0-13.46,0-.4,0-.8,0-1.19.03-.28.01-.47.17-.58.42-.13.3-.26.6-.38.9-1.4,3.75-2.8,7.51-4.21,11.26-.35.95-.71,1.89-1.07,2.84-.06.17-.14.33-.22.5-.09.17-.23.28-.42.3-.22.02-.43.03-.65.03-1.38,0-2.77,0-4.15,0-1.65,0-3.31,0-4.96,0-.21,0-.43-.03-.64-.06-.08,0-.19-.17-.16-.25.06-.21.11-.42.19-.62.64-1.69,1.28-3.37,1.93-5.06,1.5-3.91,2.99-7.82,4.49-11.73,1.53-3.98,3.06-7.95,4.59-11.93,1.44-3.74,2.86-7.49,4.3-11.23,1.27-3.3,2.55-6.6,3.82-9.9,1.47-3.84,2.94-7.69,4.41-11.53.95-2.5,1.91-4.99,2.86-7.49.08-.2.17-.4.27-.59.11-.2.29-.32.52-.34.22-.01.43-.02.65-.02,1.48,0,2.95,0,4.43,0m-4.76,45.76c1.4,0,2.8,0,4.19,0h7.09c.6,0,1.2,0,1.8,0,.65,0,1.3,0,1.95,0,.25,0,.5-.03.75-.05.11,0,.24-.2.24-.32,0-.3-.11-.56-.21-.84-.35-.91-.68-1.82-1.02-2.74-1.36-3.65-2.71-7.31-4.07-10.96-.97-2.6-1.95-5.21-2.92-7.81-.95-2.54-1.89-5.07-2.84-7.61-.05-.13-.1-.27-.17-.39-.05-.08-.15-.15-.24-.2-.01,0-.03-.01-.05-.01-.1,0-.24.11-.29.22-.1.23-.2.46-.28.7-.61,1.62-1.21,3.25-1.82,4.87-2.71,7.2-5.42,14.39-8.12,21.59-.33.88-.65,1.76-.96,2.65-.06.17-.09.35-.12.52-.02.1.14.32.24.33.36.03.72.06,1.08.06,1.93,0,3.86,0,5.78,0m4.76-48.76h-4.43c-.28,0-.56,0-.84.02-1.25.08-2.35.78-2.96,1.88-.17.31-.32.63-.45.96-.65,1.69-1.3,3.39-1.94,5.08l-.92,2.41-1.15,3.01c-1.09,2.84-2.17,5.68-3.26,8.52-.63,1.64-1.26,3.28-1.9,4.93-.64,1.66-1.28,3.32-1.92,4.98-.72,1.88-1.44,3.76-2.16,5.64-.71,1.86-1.42,3.72-2.14,5.59-.76,1.97-1.52,3.94-2.28,5.91-.77,2-1.54,4.01-2.31,6.02-1.13,2.93-2.25,5.87-3.37,8.8l-1.12,2.94c-.65,1.69-1.29,3.38-1.93,5.07-.09.24-.16.48-.23.73l-.03.12c-.26.9-.1,1.87.44,2.67.53.79,1.37,1.3,2.3,1.4h.12c.21.04.49.07.82.07,1.65,0,3.31,0,4.96,0h4.15c.36,0,.66-.02.95-.04,1.21-.12,2.26-.85,2.8-1.94.12-.25.24-.5.34-.77.36-.96.73-1.9,1.08-2.86l1.86-4.97,2.13-5.69h13.02s3.85,0,3.85,0h5.29s1.45,0,1.45,0h2.47s1.09,2.91,1.09,2.91l1.55,4.15c.79,2.1,1.57,4.19,2.36,6.29.1.26.2.51.31.76.55,1.24,1.73,2.06,3.07,2.14.31.02.62.02.92.03h2.3s1.18,0,1.18,0h1.18s.1,0,.1,0h1.13s1.13,0,1.13,0c.81,0,1.61,0,2.42,0,.3,0,.61-.02.91-.04.98-.07,1.84-.54,2.41-1.3.57-.75.79-1.7.61-2.61-.03-.17-.08-.43-.2-.75-.22-.59-.44-1.17-.66-1.75l-1.3-3.42c-1.2-3.15-2.39-6.29-3.59-9.44-1.1-2.89-2.21-5.78-3.32-8.66l-2.69-7.01c-.66-1.72-1.31-3.43-1.96-5.15-.75-1.96-1.49-3.92-2.24-5.88-.85-2.22-1.7-4.44-2.55-6.66-.91-2.36-1.82-4.73-2.72-7.09-1.19-3.12-2.38-6.24-3.57-9.37l-1.83-4.8-.03-.08c-.07-.19-.16-.44-.31-.73-.59-1.15-1.7-1.89-2.97-1.97-.28-.02-.57-.02-.85-.02h-4.58Zm-7.78,45.75l4.91-13.06,2.61-6.93.49,1.32,1.18,3.16c.58,1.55,1.16,3.1,1.74,4.65.88,2.37,1.77,4.75,2.65,7.12l1.39,3.75h-.66s-2.29,0-2.29,0h-2.24s-2.24,0-2.24,0h-2.42s-2.1,0-2.1,0c-1.01,0-2.01,0-3.02,0h0Z"/>
      </g>
      <g>
        <path d="m446.37,798.5c-.52,0-1.03-.02-1.55-.06l-.47-.04c-.31-.03-.61-.07-.92-.07-.98,0-1.91-.14-2.81-.28l-.31-.05c-1.66-.25-3.26-.61-4.77-1.09-3.9-1.24-7.13-3.02-9.87-5.45-2.99-2.65-5.28-5.92-6.81-9.71-.74-1.82-1.31-3.82-1.74-6.1-.36-1.9-.53-3.91-.53-6.53,0-1.74,0-3.48,0-5.23v-36.95c0-.47.03-.94.06-1.4.07-.94.86-1.73,1.81-1.81.26-.02.51-.03.77-.03h8.57c.21,0,.43,0,.64.02,1.09.07,1.89.89,1.94,2,.02.45.02.91.02,1.36v41.54c0,.45,0,.9.01,1.35,0,.28.03.55.06.83l.05.51c.02.15.03.29.04.44.16,2.5.81,4.84,1.94,6.94,1.39,2.6,3.44,4.48,6.27,5.73,1.39.62,2.93,1.03,4.58,1.24h.11c.97.13,1.88.25,2.78.25.2,0,.41,0,.61-.02.46-.03.92-.07,1.38-.1l.2-.02c.11-.01.23-.03.34-.04,2.54-.2,4.76-.87,6.79-2.03,2.01-1.15,3.6-2.75,4.73-4.75.93-1.65,1.56-3.49,1.93-5.62.18-1.06.26-2.25.26-3.74,0-10.75,0-21.5,0-32.25v-11.01c0-.21,0-.41.01-.61.06-1.17.87-1.96,2.07-2.01.16,0,.33,0,.5,0h8.79c.22,0,.43,0,.65.02,1.08.08,1.88.89,1.94,1.97.02.42.03.85.03,1.28v25.7c0,5.2,0,10.41,0,15.61,0,1.3-.04,2.67-.11,4.18-.04.78-.16,1.54-.26,2.21-.34,2.12-.87,4.19-1.58,6.15-1.5,4.1-3.88,7.63-7.06,10.48-1.34,1.2-2.85,2.28-4.5,3.2-2.76,1.55-5.76,2.63-9.18,3.3-.74.14-1.48.25-2.23.35l-.63.09c-.21.03-.43.04-.64.05h-.22s-.84.07-.84.07c-.44.04-.89.07-1.33.1-.5.03-1,.05-1.49.05Z"/>
        <path d="m423.66,725.19c1.38,0,2.76,0,4.13,0,.18,0,.36,0,.54.02.33.02.52.22.53.56.02.43.02.87.02,1.3,0,13.73,0,27.47,0,41.2,0,.58,0,1.16.01,1.73.01.4.05.79.09,1.19.02.22.05.43.07.65.17,2.67.85,5.19,2.12,7.55,1.58,2.95,3.94,5.04,6.98,6.39,1.6.71,3.28,1.14,5,1.36,1.02.13,2.04.26,3.07.26.24,0,.47,0,.71-.02.47-.03.94-.07,1.4-.11.18-.01.36-.05.54-.06,2.63-.21,5.12-.91,7.41-2.22,2.25-1.28,4.01-3.05,5.29-5.31,1.08-1.91,1.74-3.97,2.1-6.11.22-1.32.28-2.65.28-3.99-.01-13.77,0-27.54,0-41.31,0-.61,0-1.23,0-1.84,0-.22,0-.43,0-.65.02-.39.21-.56.63-.58.14,0,.29,0,.43,0,1.3,0,2.6,0,3.9,0,1.63,0,3.26,0,4.89,0,.18,0,.36,0,.54.02.31.02.53.23.55.56.02.4.03.79.03,1.19,0,6.72,0,13.44,0,20.17,0,7.05,0,14.09,0,21.14,0,1.37-.04,2.75-.11,4.12-.03.68-.14,1.36-.24,2.04-.32,2-.81,3.96-1.51,5.86-1.41,3.84-3.6,7.15-6.65,9.88-1.3,1.16-2.71,2.16-4.23,3.01-2.73,1.54-5.66,2.54-8.73,3.13-.92.18-1.85.29-2.78.43-.25.04-.51.03-.76.04-.72.05-1.44.11-2.16.16-.47.03-.93.05-1.4.05s-.95-.02-1.42-.06c-.5-.04-1.01-.12-1.51-.12-.98,0-1.95-.16-2.91-.31-1.54-.23-3.05-.57-4.54-1.04-3.45-1.09-6.6-2.73-9.33-5.15-2.86-2.54-4.98-5.6-6.42-9.15-.76-1.88-1.28-3.83-1.66-5.82-.39-2.07-.5-4.16-.51-6.25,0-2.42,0-4.84,0-7.26,0-4.19,0-8.38,0-12.58,0-7.45,0-14.89,0-22.34,0-.43.03-.87.06-1.3.02-.21.23-.41.44-.42.22-.02.43-.03.65-.03,1.48,0,2.96,0,4.44,0m0-3h-4.44c-.29,0-.59.01-.9.04-1.69.14-3.06,1.51-3.18,3.2-.03.44-.06.96-.06,1.51,0,6.11,0,12.21,0,18.32v4.01s0,2.22,0,2.22v10.36s0,2.11,0,2.11c0,1.72,0,3.44,0,5.16,0,2.71.18,4.81.56,6.81.45,2.38,1.05,4.47,1.83,6.38,1.62,4.01,4.05,7.46,7.21,10.26,2.9,2.58,6.31,4.46,10.41,5.76,1.58.5,3.26.89,5,1.15l.3.04c.91.14,1.94.29,3.04.3.21,0,.48.03.77.06.17.02.33.03.5.05.54.05,1.1.07,1.67.07.51,0,1.03-.02,1.59-.05.46-.03.91-.06,1.37-.1l.82-.06c.05,0,.11,0,.16,0,.2,0,.48-.01.8-.06l.61-.08c.75-.1,1.53-.21,2.33-.37,3.58-.7,6.73-1.83,9.63-3.46,1.74-.98,3.34-2.12,4.76-3.39,3.37-3.02,5.88-6.75,7.46-11.08.75-2.04,1.31-4.21,1.66-6.43.11-.67.24-1.5.28-2.37.07-1.54.11-2.93.11-4.25,0-5.23,0-10.46,0-15.69v-5.46s0-3.95,0-3.95v-16.21c0-.54-.01-.96-.04-1.36-.11-1.83-1.51-3.25-3.33-3.38-.25-.02-.5-.03-.75-.03h-4.89s-3.9,0-3.9,0c-.19,0-.38,0-.56,0-1.97.08-3.41,1.5-3.5,3.44-.01.23-.01.46-.01.69v.09s0,1.33,0,1.33v.52s0,9.03,0,9.03c0,10.76,0,21.52,0,32.28,0,1.43-.07,2.5-.24,3.49-.33,1.96-.91,3.64-1.75,5.14-1.01,1.79-2.38,3.16-4.17,4.18-1.83,1.05-3.85,1.65-6.16,1.83-.14.01-.27.03-.41.04-.04,0-.09.01-.13.02-.45.04-.91.07-1.36.1-.17.01-.34.02-.51.02-.81,0-1.67-.11-2.59-.22h-.12c-1.51-.2-2.91-.58-4.16-1.14-2.51-1.12-4.33-2.77-5.56-5.07-1.04-1.94-1.62-4.01-1.77-6.33-.01-.17-.03-.35-.05-.52,0-.06-.02-.12-.02-.18l-.03-.29c-.02-.24-.05-.49-.05-.74-.01-.44-.01-.88-.01-1.32v-.33s0-15.75,0-15.75v-25.45c0-.47,0-.95-.02-1.42-.07-1.88-1.48-3.32-3.34-3.44-.24-.02-.49-.02-.73-.02h-4.13Z"/>
      </g>
      <g>
        <path d="m365.71,797.43c-.14,0-.28,0-.42-.01-1.17-.07-1.96-.88-2-2.06-.01-.37-.01-.73-.01-1.1v-57.6c0-.12,0-.24,0-.36-.17,0-19.95,0-19.95,0-.42,0-.84,0-1.26-.02-1.13-.05-1.95-.86-2.02-2.03-.02-.25-.02-.5-.02-.75v-7.41c.05-1.61.82-2.37,2.44-2.4h54.8c.42,0,.84.01,1.26.03.95.04,1.76.83,1.84,1.8.02.22.03.45.03.67,0,2.53,0,5.06,0,7.59,0,.29-.03.59-.08.89-.12.69-.62,1.26-1.3,1.48-.25.08-.49.12-.72.13-.39.01-.76.01-1.14.01h-19.74c-.13,0-.26,0-.39,0,0,.18,0,57.77,0,57.77,0,.5-.02.99-.05,1.49-.05.94-.84,1.75-1.8,1.83-.22.02-.45.03-.67.03h-4.41s-4.38,0-4.38,0Z"/>
        <path d="m342.81,725.19c.14,0,.29,0,.43,0h11.54c14.16,0,28.32,0,42.48,0,.4,0,.79.01,1.19.03.21,0,.4.22.42.43.02.18.03.36.03.54,0,2.53,0,5.06,0,7.59,0,.21-.02.43-.06.64-.03.15-.14.25-.28.3-.1.03-.21.06-.32.06-.36.01-.72.01-1.08.01-6.58,0-13.16,0-19.74,0-.43,0-.87.02-1.3.05-.25.02-.48.24-.52.48-.03.18-.06.36-.06.54-.01.4,0,.79,0,1.19,0,19.01,0,38.01,0,57.02,0,.47-.02.94-.04,1.41-.01.21-.22.4-.43.42-.18.02-.36.03-.54.03-1.35,0-2.69,0-4.04,0-1.58,0-3.16,0-4.75,0-.11,0-.22,0-.33,0-.4-.02-.58-.21-.59-.62-.01-.4-.01-.79-.01-1.19,0-9.57,0-19.15,0-28.72s0-19.15,0-28.72c0-.43-.02-.87-.04-1.3-.01-.25-.24-.47-.48-.51-.14-.02-.29-.04-.43-.05-.34,0-.68,0-1.02,0h-.06c-6.47,0-12.94,0-19.41,0-.4,0-.8,0-1.19-.02-.38-.02-.57-.22-.6-.63-.01-.22-.02-.43-.02-.65,0-2.35,0-4.7,0-7.05,0-.11,0-.22,0-.33.02-.81.14-.93.96-.94.11,0,.22,0,.33,0m0-3c-.12,0-.25,0-.37,0-2.42.04-3.84,1.44-3.91,3.85,0,.12,0,.24,0,.37v1.21s0,5.88,0,5.88c0,.28,0,.56.02.84.12,1.93,1.54,3.35,3.46,3.43.44.02.89.02,1.33.02h12.58s5.87,0,5.87,0c0,7.69,0,15.38,0,23.06v4.53s0,4.47,0,4.47v24.26s0,.1,0,.1c0,.4,0,.79.01,1.19.06,1.96,1.47,3.4,3.42,3.51.17,0,.33.01.5.01h4.75s4.04,0,4.04,0c.32,0,.62-.02.81-.04,1.71-.15,3.07-1.55,3.16-3.25.02-.42.05-.98.05-1.56v-46.19s0-10.09,0-10.09c4.25,0,8.5,0,12.75,0h5.88c.39,0,.78,0,1.17-.02.38-.01.77-.08,1.15-.2,1.22-.39,2.11-1.41,2.32-2.65.07-.38.1-.77.1-1.15,0-2.53,0-5.06,0-7.59,0-.25-.01-.51-.04-.8-.15-1.73-1.56-3.09-3.27-3.17-.44-.02-.89-.03-1.33-.03h-42.48s-5.77,0-5.77,0h-5.98s-.22,0-.22,0h0Z"/>
      </g>
      <g>
        <path d="m686.1,797.43c-.5,0-1.33,0-1.94-.62-.62-.63-.6-1.45-.59-1.94,0-.18,0-58.44,0-58.57h-20.14c-.42,0-.85-.03-1.27-.05-.9-.05-1.71-.85-1.78-1.75-.03-.35-.06-.71-.06-1.08,0-1.42,0-2.84,0-4.26v-1.6c0-.51,0-1.02,0-1.53,0-.2.02-.4.05-.6.11-.91.87-1.62,1.79-1.72.15-.01.3-.03.44-.03h54.91c.42,0,.84,0,1.25.02.96.04,1.78.82,1.87,1.76.02.19.03.39.03.58v7.8c0,.14,0,.27,0,.41-.07,1.17-.87,1.96-2.06,2.01-.34.01-.68.01-1.02.01l-.13-1.5v1.5s-20.01,0-20.15,0c0,.22,0,57.75,0,57.75,0,.5-.02.99-.04,1.49-.05.96-.83,1.77-1.79,1.85-.25.02-.51.04-.77.04h-8.6Z"/>
        <path d="m663.2,725.19c.1,0,.2,0,.3,0,5.53,0,11.06,0,16.59,0,12.48,0,24.95,0,37.43,0,.4,0,.79,0,1.19.02.22,0,.42.21.44.41.01.14.03.29.03.43,0,2.6,0,5.2,0,7.8,0,.11,0,.22,0,.33-.02.39-.21.58-.62.59-.35.01-.69.01-1.04.01h-.04c-6.58,0-13.16,0-19.74,0-.4,0-.8,0-1.19.03-.42.03-.64.26-.69.7-.02.22-.03.43-.03.65,0,.36,0,.72,0,1.08,0,18.93,0,37.87,0,56.8,0,.47-.02.94-.04,1.41-.01.22-.21.42-.42.44-.22.02-.43.03-.65.03-.69,0-1.38,0-2.07,0-.88,0-1.76,0-2.64,0-1.29,0-2.57,0-3.86,0h-.02c-.92,0-1.05-.11-1.04-1.04,0-.29,0-.58,0-.87,0-9.54,0-19.08,0-28.62s0-19.15,0-28.72c0-.4,0-.8-.02-1.19-.02-.43-.24-.64-.69-.67-.18-.01-.36-.02-.54-.02-.18,0-.35,0-.53,0-.15,0-.3,0-.44,0h-.84c-2.06,0-4.12,0-6.19,0-4.13,0-8.26,0-12.39,0-.4,0-.79-.02-1.19-.04-.15,0-.36-.21-.37-.36-.03-.32-.05-.65-.05-.97,0-1.95,0-3.9,0-5.85,0-.51,0-1.01,0-1.52,0-.14.02-.29.04-.43.03-.2.23-.39.45-.41.11-.01.22-.02.32-.02.19,0,.38,0,.57,0m0-3c-.2,0-.4,0-.61,0-.2,0-.39.02-.58.04-1.61.16-2.93,1.43-3.13,3.02-.02.17-.06.45-.06.78,0,.48,0,.95,0,1.43v1.34c0,1.55,0,3.1,0,4.64,0,.44.03.85.06,1.2.13,1.66,1.54,3.02,3.19,3.12.41.02.87.05,1.35.05,4.13,0,8.26,0,12.39,0h6.19s.06,0,.06,0v23.28s0,4.33,0,4.33v28.62s0,.3,0,.3c0,.17,0,.35,0,.52-.01.58-.03,1.94,1.02,3.02,1.06,1.07,2.43,1.07,3.01,1.07,1.31,0,2.6,0,3.88,0h1.32s1.32,0,1.32,0h2.08c.28,0,.58-.02.91-.04,1.7-.15,3.06-1.56,3.15-3.27.03-.6.05-1.1.05-1.56,0-16.41,0-32.82,0-49.23v-7.03h10.92s7.74,0,7.74,0c.43,0,.82,0,1.21-.02,1.95-.08,3.39-1.49,3.5-3.42,0-.16.01-.33.01-.49,0-2.6,0-5.21,0-7.81,0-.29-.02-.54-.04-.74-.17-1.7-1.59-3.03-3.3-3.1-.44-.02-.88-.03-1.32-.03h-37.43s-11.06,0-11.06,0h-5.67s-.15,0-.15,0h0Z"/>
      </g>
    </g>
    <path d="m693.96,666.1c-44.78,0-82.24-31.41-91.55-73.37h-224.8c-9.32,41.97-46.78,73.37-91.55,73.37-53.98,0-97.33-45.63-93.55-100.42,3.18-46.59,41.18-84.2,87.8-86.99,41.45-2.48,77.52,22,92.34,57.52.36.85.51,1.69.51,2.51,0,3.36-2.63,6.35-6.29,6.35s-6.66-2.06-8.08-5.23c-12.4-27.81-40.33-47.17-72.74-47.17-45.75,0-82.51,38.64-79.45,85.02,2.6,39.36,34.49,71.37,73.86,74.07,40.3,2.75,74.73-24.51,83.23-61.63h0c0-6.08,4.93-11.01,11.01-11.01h230.61c6.08,0,11.01,4.93,11.01,11.01h0c8.11,35.4,39.79,61.81,77.64,61.81,46.96,0,84.48-40.69,79.12-88.74-4.08-36.82-33.92-66.35-70.77-70.1-35.67-3.63-67.23,16.31-80.84,46.17-1.57,3.51-5.05,5.81-8.9,5.81-4.18,0-7.11-4.21-5.54-8.05,14.58-35.97,50.92-60.85,92.68-58.33,46.62,2.78,84.63,40.39,87.8,86.99,3.78,54.79-39.58,100.42-93.55,100.42Z"/>
    <circle class="cls-3" cx="286.36" cy="574.7" r="45.38"/>
    <circle class="cls-3" cx="694.81" cy="571.68" r="45.38"/>
    <path class="cls-1" d="m332.51,440.87l35.58,35.58c14.63,14.63,37.39,17.32,55.03,6.5l48.93-30.02c14.62-8.97,33.09-8.79,47.54.47l37.29,23.9c17.7,11.34,40.91,8.84,55.77-6.03l35.88-35.88c16.77-16.77,17.54-43.72,1.74-61.42l-130.8-146.56c-18.42-20.64-50.96-19.78-68.27,1.8l-121.95,152.04c-14.28,17.8-12.87,43.49,3.26,59.62Z"/>
    <circle class="cls-2" cx="490.87" cy="113.12" r="60.12"/>
  </g>
  <path d="m490,27c62.52,0,123.15,12.24,180.21,36.37,55.13,23.32,104.65,56.71,147.18,99.24,42.53,42.53,75.92,92.05,99.24,147.18,24.14,57.06,36.37,117.7,36.37,180.21s-12.24,123.15-36.37,180.21c-23.32,55.13-56.71,104.65-99.24,147.18-42.53,42.53-92.05,75.92-147.18,99.24-57.06,24.14-117.7,36.37-180.21,36.37s-123.15-12.24-180.21-36.37c-55.13-23.32-104.65-56.71-147.18-99.24-42.53-42.53-75.92-92.05-99.24-147.18-24.14-57.06-36.37-117.7-36.37-180.21s12.24-123.15,36.37-180.21c23.32-55.13,56.71-104.65,99.24-147.18s92.05-75.92,147.18-99.24c57.06-24.14,117.7-36.37,180.21-36.37m0-27C219.38,0,0,219.38,0,490s219.38,490,490,490,490-219.38,490-490S760.62,0,490,0h0Z"/>
</svg>