<?xml version="1.0" encoding="UTF-8"?>
<svg id="Brake___Wheel_Repair" data-name="Brake_&amp;amp;_Wheel_Repair" xmlns="http://www.w3.org/2000/svg" viewBox="0 0 374 374">
  <path d="m45.56,206.82h25.97c2.28,70.15,60.13,126.18,130.74,126.18s130.74-58.76,130.74-130.74-56.49-128.46-127.1-130.74v-25.97c0-2.73-2.28-4.56-4.56-4.56-88.83.91-160.35,73.34-160.35,161.26,0,2.73,1.82,4.56,4.55,4.56h0Zm277.88-4.56c0,66.97-54.67,121.63-121.63,121.63s-118.9-51.93-121.63-117.07h25.51c2.73,0,4.56-1.82,4.56-4.56,0-50.11,40.54-91.11,90.65-91.11,2.73,0,4.56-2.28,4.56-4.56v-25.51c65.6,1.82,117.99,55.58,117.99,121.17h0ZM196.34,50.57l.46,51.48c-51.48,2.73-92.93,44.19-95.21,95.66h-51.47c2.28-79.26,66.51-143.95,146.23-147.14h0Z"/>
  <path d="m201.8,219.57c-8.65,0-15.94,7.29-15.94,15.94s7.29,15.94,15.94,15.94,15.94-7.29,15.94-15.94-6.83-15.94-15.94-15.94Zm0,22.78c-3.64,0-6.83-3.19-6.83-6.83s3.19-6.83,6.83-6.83,6.83,3.19,6.83,6.83-3.19,6.83-6.83,6.83Z"/>
  <path d="m235.06,218.21c8.65,0,15.94-7.29,15.94-15.94s-7.29-15.94-15.94-15.94-15.94,7.29-15.94,15.94,7.29,15.94,15.94,15.94Zm0-22.78c3.64,0,6.83,3.19,6.83,6.83s-3.19,6.83-6.83,6.83-6.83-3.19-6.83-6.83,3.19-6.83,6.83-6.83Z"/>
  <path d="m168.55,186.32c-8.65,0-15.94,7.29-15.94,15.94s7.29,15.94,15.94,15.94,15.94-7.29,15.94-15.94-6.83-15.94-15.94-15.94Zm0,22.78c-3.64,0-6.83-3.19-6.83-6.83s3.19-6.83,6.83-6.83,6.83,3.19,6.83,6.83-2.73,6.83-6.83,6.83Z"/>
  <path d="m185.86,169.01c0,8.65,7.29,15.94,15.94,15.94s15.94-7.29,15.94-15.94-6.83-15.94-15.94-15.94-15.94,7.29-15.94,15.94Zm22.78,0c0,3.64-3.19,6.83-6.83,6.83s-6.83-3.19-6.83-6.83,3.19-6.83,6.83-6.83,6.83,3.19,6.83,6.83Z"/>
  <path d="m123.91,202.26c0,42.82,35.08,77.9,77.9,77.9s77.9-35.08,77.9-77.9-35.08-77.9-77.9-77.9-77.9,35.08-77.9,77.9h0Zm146.69,0c0,37.81-30.98,68.79-68.79,68.79s-68.79-30.98-68.79-68.79,30.98-68.79,68.79-68.79,68.79,30.97,68.79,68.79Z"/>
</svg>