<svg id="Layer_1" data-name="Layer 1" xmlns="http://www.w3.org/2000/svg" viewBox="0 0 95.31 30.55"><title>Car_Outlined</title><path d="M65.54,43.67c8.32,0,20,.93,27.11,4.62,6.16,2.77,6.16,12.63-2.47,12.63A9.22,9.22,0,0,0,81.56,48a9.47,9.47,0,0,0-8.63,12.94H29.8a9.34,9.34,0,1,0-17.25,0H11c-2.77,0-8-.3-8-5.23V49.52c0-7.7,6.47-7.39,11.71-7.39,12.94-9.24,38.81-9.24,50.83,1.54ZM28.26,57.23a7.23,7.23,0,0,1-7.08,7.39,7.5,7.5,0,0,1-7.4-7.39,7.24,7.24,0,0,1,7.4-7.09A7,7,0,0,1,28.26,57.23Zm60.69,0a7.5,7.5,0,0,1-7.39,7.39,7.24,7.24,0,0,1-7.09-7.39,7,7,0,0,1,7.09-7.09A7.24,7.24,0,0,1,89,57.23Z" transform="translate(-2.34 -34.72)" fill="none" stroke="#fff" stroke-linecap="round" stroke-linejoin="round" stroke-width="2.31" fill-rule="evenodd"/></svg>