<svg width="16" height="16" viewBox="0 0 16 16" fill="none" xmlns="http://www.w3.org/2000/svg">
<path d="M11 8C11 9.65625 9.65625 11 8 11C6.3125 11 5 9.65625 5 8C5 6.34375 6.3125 5 8 5C9.65625 5 11 6.34375 11 8ZM8 6C6.875 6 6 6.90625 6 8C6 9.125 6.875 10 8 10C9.09375 10 10 9.125 10 8C10 6.90625 9.09375 6 8 6ZM8 0C8.25 0 8.5 0.25 8.5 0.5V2.03125C11.4062 2.28125 13.7188 4.59375 13.9688 7.5H15.5C15.75 7.5 16 7.75 16 8C16 8.28125 15.75 8.5 15.5 8.5H13.9688C13.7188 11.4375 11.4062 13.75 8.5 14V15.5C8.5 15.7812 8.25 16 8 16C7.71875 16 7.5 15.7812 7.5 15.5V14C4.5625 13.75 2.25 11.4375 2 8.5H0.5C0.21875 8.5 0 8.28125 0 8C0 7.75 0.21875 7.5 0.5 7.5H2C2.25 4.59375 4.5625 2.28125 7.5 2.03125V0.5C7.5 0.25 7.71875 0 8 0ZM3 8C3 10.7812 5.21875 13 8 13C10.75 13 13 10.7812 13 8C13 5.25 10.75 3 8 3C5.21875 3 3 5.25 3 8Z" fill="black"/>
</svg>
