<svg width="12" height="17" viewBox="0 0 12 17" fill="none" xmlns="http://www.w3.org/2000/svg">
<path d="M5.34375 8.375C5.15625 8.5625 4.8125 8.5625 4.625 8.375L2.875 6.625C2.6875 6.4375 2.6875 6.09375 2.875 5.90625C3.0625 5.71875 3.40625 5.71875 3.59375 5.90625L5 7.3125L8.125 4.15625C8.3125 3.96875 8.65625 3.96875 8.84375 4.15625C9.03125 4.34375 9.03125 4.6875 8.84375 4.875L5.34375 8.375ZM12 6C12 8.75 8.34375 13.5938 6.71875 15.625C6.34375 16.0938 5.625 16.0938 5.25 15.625C3.625 13.5938 0 8.75 0 6C0 2.6875 2.65625 0 6 0C9.3125 0 12 2.6875 12 6ZM6 1C3.21875 1 1 3.25 1 6C1 6.5 1.15625 7.15625 1.5 8C1.84375 8.8125 2.3125 9.6875 2.875 10.5625C3.9375 12.2812 5.1875 13.9375 6 14.9375C6.78125 13.9375 8.03125 12.2812 9.09375 10.5625C9.65625 9.6875 10.125 8.8125 10.4688 8C10.8125 7.15625 11 6.5 11 6C11 3.25 8.75 1 6 1Z" fill="black"/>
</svg>
