<svg id="Layer_1" data-name="Layer 1" xmlns="http://www.w3.org/2000/svg" viewBox="0 0 291.54 68.77"><title>final_logo_BLU</title><path d="M53.16,42.18l.15-.57c-1.62.63-3.19,1.38-4.74,2.15-4.2,2.07-8.48,4.34-13.21,4.84-2.57.27-5.5-1.53-5.7-4.31A123.73,123.73,0,0,1,30,29.5c.05-1.19.1-2.37.12-3.56,0-.3,0-.6,0-.9-.06-.93,0-.81,0-.52,0-.36,0-.71,0-1.07,0-.07,0-.15,0-.22a45.31,45.31,0,0,0-5.13,4.14c-.46.43-.92.86-1.37,1.3l-.3.29-.13.13c-.87.88-1.72,1.77-2.56,2.67-1.6,1.71-3.16,3.45-4.72,5.19-1.34,1.49-2.68,3-4.08,4.43-.56.57-1.13,1.13-1.7,1.69a3.24,3.24,0,0,1-.49.49c-.74.77-1.47,1.57-2.17,2.38C6.17,47.33,5,48.75,3.83,50.18A34.42,34.42,0,0,0,45.5,66.93c.31-1.21.64-2.41,1-3.6,2-7.11,4.75-14,6.69-21.15" fill="#000000"/><path d="M34.39,0A34.38,34.38,0,0,0,0,34.39a35,35,0,0,0,.27,4.36l1.05-1.14c.65-.68,1.32-1.34,2-2l.26-.25c.62-.64,1.23-1.28,1.83-1.93,1.47-1.6,2.92-3.23,4.38-4.85a111.88,111.88,0,0,1,11-11c3.62-3,7.89-5.81,12.65-6.49a5.24,5.24,0,0,1,3.79,1,5.42,5.42,0,0,1,1.91,3.3c1.22,4.79,1.1,9.86.88,14.76-.1,2.24-.24,4.46-.34,6.7C41.59,36,43.46,35,45.35,34.1,50,31.85,54.9,30,60.12,30.54a5.14,5.14,0,0,1,4.4,5.64,46.75,46.75,0,0,1-1.12,6.43c-1.35,5.58-3.23,11-5,16.42a34.39,34.39,0,0,0-24-59" fill="#000000"/><path d="M123.15,49.38h-7.1l-1.64-12.05c-.14-1.07-.24-2-.3-2.83s-.18-1.94-.27-3.41a40.21,40.21,0,0,1-1.06,4.42c-.1.31-.18.59-.23.82l-3.79,13.05H103.7L99.91,36.33a5.05,5.05,0,0,0-.23-.82,27.53,27.53,0,0,1-1-4.42c-.11,1.4-.2,2.44-.29,3.12,0,.36-.1.88-.17,1.56S98,37,98,37.33L96.37,49.38H89.31l4.3-27.86h7.52l4.2,14.37c.08.26.13.44.16.51a19.8,19.8,0,0,1,.74,3.28,12.48,12.48,0,0,1,.29-1.68l.57-2.15,4.24-14.33h7.54Z" fill="#000000"/><path d="M147.83,41.12H133.21a5.18,5.18,0,0,0,1.12,3.43,4.11,4.11,0,0,0,3.2,1.22,5.47,5.47,0,0,0,2.61-.59,3.74,3.74,0,0,0,1.6-1.72l5.1,2.06a6.58,6.58,0,0,1-3.24,3.39,12.15,12.15,0,0,1-5.69,1.21,11.4,11.4,0,0,1-8.07-2.81,9.4,9.4,0,0,1-3-7.33,10.13,10.13,0,0,1,3-7.48,10.55,10.55,0,0,1,7.69-2.95,9.75,9.75,0,0,1,7.52,3,9.93,9.93,0,0,1,2.09,3.59,14.57,14.57,0,0,1,.69,4.67Zm-6.68-3.82a4.08,4.08,0,0,0-1.24-2.61,3.66,3.66,0,0,0-2.61-1,3.86,3.86,0,0,0-2.63.89,4.72,4.72,0,0,0-1.31,2.73Z" fill="#000000"/><path d="M152.88,49.38V19.88h6.66V38.55l7-8.39h8.42l-8.64,9.25,9.42,10h-8.93l-7.25-8.54v8.54Z" fill="#000000"/><path d="M199.58,30.16V49.38h-6.25V46.26a9.07,9.07,0,0,1-3,2.93,7.86,7.86,0,0,1-3.89.93,7.48,7.48,0,0,1-6.14-2.81A9.75,9.75,0,0,1,178.58,44a14.24,14.24,0,0,1-.59-4.24,11,11,0,0,1,2.42-7.48,8.15,8.15,0,0,1,6.46-2.76,7,7,0,0,1,3.72.94,7.21,7.21,0,0,1,2.7,2.84V30.16Zm-6,9.6a4.89,4.89,0,0,0-1.2-3.53,4.19,4.19,0,0,0-3.26-1.33,4.15,4.15,0,0,0-3.23,1.29,5.1,5.1,0,0,0-1.22,3.57,5,5,0,0,0,1.22,3.55,4.14,4.14,0,0,0,3.23,1.28,4.26,4.26,0,0,0,3.25-1.28A4.91,4.91,0,0,0,193.6,39.76Z" fill="#000000"/><path d="M205.83,49.38V30.16H212v3.9a9.68,9.68,0,0,1,3.12-3.43,7.93,7.93,0,0,1,4.24-1.08,9.19,9.19,0,0,1,3.35.57,6.24,6.24,0,0,1,2.34,1.75,6.08,6.08,0,0,1,1.09,2.34,21.26,21.26,0,0,1,.33,4.17v11h-6.82V39.09a5.74,5.74,0,0,0-.74-3.35,2.73,2.73,0,0,0-2.41-1.05,3.36,3.36,0,0,0-3.07,1.56,9.94,9.94,0,0,0-1,5.06v8.07Z" fill="#000000"/><path d="M232.25,49.38V30.16H239V49.38Zm.86-24.17h0a2.26,2.26,0,0,1,.74-1.75,2.41,2.41,0,0,1,1.79-.74,2.5,2.5,0,0,1,1.82.7,2.56,2.56,0,1,1-4.39,1.79Z" fill="#000000"/><path d="M245.74,49.38V19.88h6.66V38.55l7-8.39h8.42l-8.65,9.25,9.43,10h-8.93l-7.25-8.54v8.54Z" fill="#000000"/><path d="M291.54,30.16V40a16.74,16.74,0,0,1-.5,4.8,7.13,7.13,0,0,1-1.79,2.81,7.49,7.49,0,0,1-3.16,1.91,14.11,14.11,0,0,1-4.49.62,13.68,13.68,0,0,1-4.43-.62,8.25,8.25,0,0,1-3.24-1.91,6.52,6.52,0,0,1-1.75-2.78,16.26,16.26,0,0,1-.51-4.83V30.16h6.47V40.42a5.66,5.66,0,0,0,.82,3.46A2.85,2.85,0,0,0,281.53,45a3,3,0,0,0,2.59-1.07,6,6,0,0,0,.79-3.5V30.16Z" fill="#000000"/></svg>