<svg width="16" height="21" viewBox="0 0 16 21" fill="none" xmlns="http://www.w3.org/2000/svg">
<path d="M8.25 4.25C8.5625 4.25 8.875 4.5625 8.875 4.875V7.375H11.375C11.6875 7.375 12 7.6875 12 8C12 8.35156 11.6875 8.625 11.375 8.625H8.875V11.125C8.875 11.4766 8.5625 11.75 8.25 11.75C7.89844 11.75 7.625 11.4766 7.625 11.125V8.625H5.125C4.77344 8.625 4.5 8.35156 4.5 8C4.5 7.6875 4.77344 7.375 5.125 7.375H7.625V4.875C7.625 4.5625 7.89844 4.25 8.25 4.25ZM15.75 8C15.75 11.4375 11.1797 17.4922 9.14844 20.0312C8.67969 20.6172 7.78125 20.6172 7.3125 20.0312C5.28125 17.4922 0.75 11.4375 0.75 8C0.75 3.85938 4.07031 0.5 8.25 0.5C12.3906 0.5 15.75 3.85938 15.75 8ZM8.25 1.75C4.77344 1.75 2 4.5625 2 8C2 8.625 2.19531 9.44531 2.625 10.5C3.05469 11.5156 3.64062 12.6094 4.34375 13.7031C5.67188 15.8516 7.23438 17.9219 8.25 19.1719C9.22656 17.9219 10.7891 15.8516 12.1172 13.7031C12.8203 12.6094 13.4062 11.5156 13.8359 10.5C14.2656 9.44531 14.5 8.625 14.5 8C14.5 4.5625 11.6875 1.75 8.25 1.75Z" fill="black"/>
</svg>
