<svg id="Layer_1" data-name="Layer 1" xmlns="http://www.w3.org/2000/svg" viewBox="0 0 86.02 60.92"><title>Scooter_Outlined</title><path d="M81,57.56a17,17,0,0,0-3,.41,2.42,2.42,0,0,1-2.29-1.17,12.75,12.75,0,0,0,.77-6.24c-.46-3.51-4.59-11.84-7.64-14.77s-4.45-3-3.19-5,2.62-3.57,1.4-5S65.61,24.17,64,23.69s-1.52-1.09-1.4-2,.2-1.27-1.14-1.27S60,20.43,59.59,22s-.71,1.94,1,2.8c.84.87.84.87.39,1.91s-1.81,2-1.66,2.93,5.22,18.85,5.22,18.85,3.11,11.22-1.4,14.4c-1.58,1.68-16.54,2.52-17.83-2.42s-.06-6.37,1.33-8.73,2.68-6,2.12-8.21-1.89-4.43-6.23-3.73-16.21-5.41-23.09-1.27-5.33,10.1-5.33,10.1-5.73,3.6-3.32,2.92,5.23.76,5.23.76a34.15,34.15,0,0,0,1.65,3.23,10.91,10.91,0,0,0-7.8,4.35,13.3,13.3,0,0,0-2.22,6.63,11,11,0,0,0,21.63,3c1.37.77,3.94,2.06,5.2,1.62a3.76,3.76,0,0,0,2.29-1.84s-1.07-1.89,3.09-.17,9.52,2.14,13.82,2.09a37.17,37.17,0,0,0,11.93-1.89c3.36-1.25,4.19-2.61,4.19-2.61a10.14,10.14,0,0,0,.14,2.1A11,11,0,1,0,81,57.56Z" transform="translate(-6.82 -19.54)" fill="none" stroke="#000" stroke-linecap="round" stroke-linejoin="round" stroke-width="2.67"/></svg>